<svg width="535" height="506" viewBox="0 0 535 506" fill="none" xmlns="http://www.w3.org/2000/svg">
<g filter="url(#filter0_d)">
<path d="M267.5 416C350.067 416 417 349.067 417 266.5C417 183.933 350.067 117 267.5 117C184.933 117 118 183.933 118 266.5C118 349.067 184.933 416 267.5 416Z" fill="url(#paint0_linear)"/>
</g>
<path d="M149.5 194.5C160.7 151.3 242 120 250 125.5C258 131 223 138.5 236.5 150C250 161.5 252.5 152.5 258 160C263.5 167.5 287 191 285 193C283 195 276 204 276 206C276 207.6 274 211.667 273 213.5C270 214.833 264 218.3 264 221.5C264 224.7 263.333 232.5 263 236C261.333 234.833 258 231.8 258 229C258 225.5 252.5 225 245.5 225C238.5 225 241.5 229 234.5 236C228.9 241.6 232.167 246.667 234.5 248.5C235.667 248.5 239.5 247.5 245.5 243.5C251.5 239.5 251 245.167 250 248.5C248.667 250.167 245.9 254.6 245.5 259C245.1 263.4 260 271.5 267.5 275L273 276.5C275.864 276.027 276 272.5 278.5 271.5C281 270.5 300 267 316 281C319.931 282.227 326.4 285 330 287C333.6 289 334.5 295.5 336 298.5C337.5 301.5 363 308 366 308C369 308 368.104 309.938 369 311.5C373.135 318.705 359.7 327.2 358.5 330C357.3 332.8 357.667 338.5 358 341L350 350.5L341 356C335.5 364.167 324.3 380.3 323.5 379.5C322.7 378.7 319.5 380.5 318 381.5C317.5 383 316 385.9 314 385.5C312 385.1 308.167 386.333 306.5 387L305 391C305 391 302.5 401 297.5 403.5C292.5 406 279.167 407.667 279.5 406.5C279.833 405.333 280.6 402.6 281 401C281.5 399 280.5 392.5 280.5 391C280.5 389.5 282 381.5 283.5 379C284.7 377 286.333 359.5 287 351C289.8 335 280.5 334 276 330C271.5 326 261.8 311 263 307C266.2 306.6 265 302.167 264 300C267 291.5 272.5 286 270 282.5C267.5 279 266 277.5 258 278.5C250 279.5 226.5 258 210.5 253.5C194.5 249 194.1 249.7 192.5 248.5C190.9 247.3 189.833 244.667 189.5 243.5C187.167 239.667 181.2 231 176 227C169.6 224.6 165 219.667 163.5 217.5C159.667 216.667 151.5 210.9 149.5 194.5Z" fill="url(#paint1_linear)"/>
<path d="M132 113C136.971 113 141 108.971 141 104C141 99.0294 136.971 95 132 95C127.029 95 123 99.0294 123 104C123 108.971 127.029 113 132 113Z" fill="#E2E2FF"/>
<path d="M90 189C94.9706 189 99 184.971 99 180C99 175.029 94.9706 171 90 171C85.0294 171 81 175.029 81 180C81 184.971 85.0294 189 90 189Z" fill="#E2E2FF"/>
<path d="M114 440C118.971 440 123 435.971 123 431C123 426.029 118.971 422 114 422C109.029 422 105 426.029 105 431C105 435.971 109.029 440 114 440Z" fill="#E2E2FF"/>
<path d="M441 358C445.971 358 450 353.971 450 349C450 344.029 445.971 340 441 340C436.029 340 432 344.029 432 349C432 353.971 436.029 358 441 358Z" fill="#E2E2FF"/>
<path d="M426 152C430.971 152 435 147.971 435 143C435 138.029 430.971 134 426 134C421.029 134 417 138.029 417 143C417 147.971 421.029 152 426 152Z" fill="#E2E2FF"/>
<path fill-rule="evenodd" clip-rule="evenodd" d="M349.011 74.7258C350.797 74.0998 352.399 72.9942 353.264 71.2178C355.755 66.0995 348.224 63.194 345.448 64.9002C342.671 66.6064 339.196 72.9939 340.676 74.4399C341.267 75.0166 342.992 75.4348 345.011 75.4047L340.254 81.468L345.818 84.6803L349.011 74.7258Z" fill="#EED0B4"/>
<path fill-rule="evenodd" clip-rule="evenodd" d="M348.296 69.0734C346.385 71.8909 344.973 73.0359 344.059 72.5083C342.688 71.7169 342.023 70.183 341.422 69.8357C340.983 69.5826 340.767 70.1829 340.825 70.7539C340.873 71.225 341.855 72.2198 341.558 72.7355C341.26 73.2512 340.568 72.3196 340.391 72.6255C340.099 73.1314 339.388 73.989 340.274 74.5005C341.17 75.0182 343.928 76.1785 345.13 75.1139C345.906 74.4269 347.108 72.7692 348.737 70.1408C348.795 70.1658 348.852 70.1945 348.908 70.2269C349.676 70.6704 349.943 71.6472 349.503 72.4086C349.28 72.7951 348.918 73.0518 348.515 73.1529C348.576 73.789 348.666 74.4676 348.799 75.1916C350.885 75.1647 354.018 72.9732 353.999 69.5001C354.314 67.9858 353.336 66.9117 352.396 65.9485C351.705 65.047 350.786 64.4599 349.859 64.226C348.221 63.4574 346.555 63.1244 345.998 63.1765C345.152 64.6414 345.188 65.2413 347.656 66.6152C348.075 67.2768 348.225 68.0853 348.296 69.0734Z" fill="#733E1D"/>
<path fill-rule="evenodd" clip-rule="evenodd" d="M325.122 83.7722L315.874 78.6418C314.337 76.801 312.712 75.1845 310.912 74.8614C309.112 74.5383 310.821 75.3676 310.821 75.3676C310.821 75.3676 312.29 78.1354 311.909 78.5429C311.528 78.9505 310.581 78.3738 310.126 79.0518C309.823 79.5038 311.442 80.2283 314.983 81.2251L321.7 87.4347L325.122 83.7722Z" fill="#E6C5A7"/>
<path fill-rule="evenodd" clip-rule="evenodd" d="M353.216 89.384L352.603 87.1172C342.297 82.4219 327.943 85.1748 316.704 78.7745L314.932 82.3864C324.641 98.0171 342.243 94.8624 353.216 89.384Z" fill="#71C0DD"/>
<path fill-rule="evenodd" clip-rule="evenodd" d="M355.509 113.46C346.216 116.016 344.255 117.343 339.902 117.753C338.97 117.84 337.059 111.146 336.078 106.677C333.785 96.234 338.723 90.4448 337.678 79.346L343.473 77.8745C349.071 85.2022 353.337 100.689 355.509 113.46Z" fill="#DDE3E9"/>
<path fill-rule="evenodd" clip-rule="evenodd" d="M351.548 84.9284C352.379 84.601 353.001 83.9613 353.415 83.0093C355.197 78.9056 354.219 76.8307 351.855 76.341C349.491 75.8512 347.579 77.4985 343.918 77.8431C343.719 77.8618 343.538 77.8916 343.375 77.9323L341.544 78.2113C337.956 96.7156 337.63 108.867 340.566 114.665L356.617 114.976L356.604 102.209C355.756 88.7867 359.166 93.6292 351.548 84.9284Z" fill="#7DD5F6"/>
<path fill-rule="evenodd" clip-rule="evenodd" d="M318.698 84.371L315.518 81.2105C315.568 79.0419 314.812 78.4373 314.078 78.2127C313.82 78.0865 314.256 80.0258 313.246 79.4962C312.237 78.9667 310.178 76.2653 309.613 76.5311C308.777 76.9242 308.855 78.8922 309.3 79.9878C310.13 82.0353 311.052 82.9188 313.519 84.4384C314.81 85.2329 316.101 86.4531 317.393 88.0989L318.698 84.371Z" fill="#EED0B4"/>
<path fill-rule="evenodd" clip-rule="evenodd" d="M354.968 94.3473L354.355 92.0806C344.048 87.3853 329.695 90.1381 318.456 83.7379L316.684 87.3497C326.393 102.98 343.995 99.8258 354.968 94.3473Z" fill="#7DD5F6"/>
<path fill-rule="evenodd" clip-rule="evenodd" d="M352.645 114.566L343.592 145.76L339.334 169.18H335.061L339.327 114.566H352.645Z" fill="#E3C5AA"/>
<path fill-rule="evenodd" clip-rule="evenodd" d="M356.713 114.566C356.081 130.771 356.331 139.609 356.472 141.082C356.613 142.554 357.416 152.414 362.885 169.675H358.44C351.197 153.116 348.669 143.256 347.838 141.082C347.008 138.908 344.554 130.069 340.972 114.566H356.713Z" fill="#EED0B4"/>
<path fill-rule="evenodd" clip-rule="evenodd" d="M352.838 114.566C350.483 125.3 346.411 142.434 340.62 165.968H334.37C333.908 141.812 335.872 125.914 339.273 114.566H352.838Z" fill="#031F24"/>
<path fill-rule="evenodd" clip-rule="evenodd" d="M356.745 114.566C356.126 130.771 357.729 146.736 362.695 166.22H356.026C348.77 149.909 343.57 134.023 340.016 114.566H356.745Z" fill="#043136"/>
<path fill-rule="evenodd" clip-rule="evenodd" d="M363.518 172.887L363.272 168.933C361.836 169.353 360.038 169.188 357.877 168.439C355.553 170.085 352.628 171.209 349.101 171.811C348.832 171.857 348.651 172.112 348.697 172.381C348.7 172.399 348.704 172.416 348.709 172.433L349.048 173.629H357.877H363.027L363.518 172.887Z" fill="#001F19"/>
<path fill-rule="evenodd" clip-rule="evenodd" d="M340.287 172.887L340.042 168.933C338.606 169.353 336.807 169.188 334.646 168.439C332.323 170.085 329.397 171.209 325.871 171.811C325.602 171.857 325.421 172.112 325.467 172.381C325.469 172.399 325.473 172.416 325.478 172.433L325.817 173.629H334.646H339.797L340.287 172.887Z" fill="#001F19"/>
<path fill-rule="evenodd" clip-rule="evenodd" d="M288.114 50.0107C287.327 48.3569 286.993 46.4987 287.618 44.6845C289.42 39.4572 296.522 42.6163 297.244 45.6917C297.966 48.7671 295.967 55.5416 293.974 55.5227C293.179 55.5151 291.721 54.6212 290.369 53.2176L289.463 60.6472L283.488 59.0463L288.114 50.0107Z" fill="#D4A181"/>
<path fill-rule="evenodd" clip-rule="evenodd" d="M290.282 50.1901C289.16 51.4137 287.848 52.2101 286.824 51.9358C284.88 51.4148 284.194 48.4447 284.943 45.6497C284.969 45.5515 284.997 45.4544 285.027 45.3586C282.592 46.219 280.261 48.5764 277.54 47.8471C273.837 46.855 274.368 38.9927 279.541 40.3789C283.059 41.3215 284.652 42.2982 285.94 43.4563C286.457 42.7059 287.092 42.1288 287.771 41.7889C287.943 41.6758 288.183 41.5878 288.479 41.526C288.662 41.4815 288.846 41.4546 289.03 41.4466C290.018 41.3571 291.384 41.473 292.852 41.8121C293.127 41.8754 293.394 41.9442 293.654 42.0174C294.025 40.6473 295.436 39.8352 296.808 40.2029C298.183 40.5713 298.999 41.9845 298.631 43.3594C298.274 44.689 296.941 45.4958 295.61 45.2143C294.797 45.2448 293.787 45.1564 292.698 44.9416C292.698 45.3599 292.635 45.8186 292.501 46.3199C292.382 46.7626 292.208 47.219 291.99 47.6715C291.832 47.3337 291.57 47.0706 291.255 46.9863C290.374 46.7503 289.567 47.3105 289.361 48.0797C289.1 49.0559 289.474 49.9132 290.282 50.1901Z" fill="#4B4B61"/>
<path fill-rule="evenodd" clip-rule="evenodd" d="M280.525 82.1924L289.197 110.152L293.275 131.144H297.369L293.283 82.1924H280.525Z" fill="#BA8B72"/>
<path fill-rule="evenodd" clip-rule="evenodd" d="M276.594 82.4155C277.2 99.1548 276.961 108.285 276.825 109.806C276.69 111.326 275.919 121.512 270.67 139.341H274.936C281.888 122.237 284.315 112.052 285.112 109.806C285.909 107.56 288.264 98.4296 291.702 82.4155H276.594Z" fill="#D4A181"/>
<path fill-rule="evenodd" clip-rule="evenodd" d="M280.525 82.1924C282.732 91.8649 286.549 107.305 291.975 128.512H297.833C298.265 106.745 296.425 92.4184 293.238 82.1924H280.525Z" fill="#5AA29D"/>
<path fill-rule="evenodd" clip-rule="evenodd" d="M276.563 82.4155C277.157 99.1548 275.618 115.646 270.852 135.773H277.253C284.217 118.924 289.209 102.514 292.62 82.4155H276.563Z" fill="#67BBB6"/>
<path fill-rule="evenodd" clip-rule="evenodd" d="M270.062 142.66L270.298 138.575C271.676 139.009 273.402 138.839 275.477 138.065C277.707 139.765 280.515 140.926 283.9 141.548C284.158 141.595 284.332 141.859 284.288 142.137C284.285 142.155 284.281 142.173 284.277 142.19L283.951 143.426H275.477H270.533L270.062 142.66Z" fill="#DADAE3"/>
<path fill-rule="evenodd" clip-rule="evenodd" d="M292.359 134.69L292.595 131.146C293.973 131.523 295.699 131.375 297.774 130.703C300.004 132.178 302.812 133.186 306.197 133.725C306.455 133.766 306.629 133.995 306.585 134.237C306.582 134.252 306.578 134.268 306.573 134.283L306.248 135.355H297.774H292.83L292.359 134.69Z" fill="#DADAE3"/>
<path d="M310.58 75.6222L307.728 72.7336L305.946 71.2594L304.39 72.7099L305.438 74.3854L306.96 76.1019L309.192 77.8797L311.323 78.0639L310.58 75.6222Z" fill="#C5906F"/>
<path fill-rule="evenodd" clip-rule="evenodd" d="M304.628 71.7108L308.248 74.3559C310.382 73.9667 311.098 74.6192 311.434 75.3082C311.599 75.5434 309.616 75.4168 310.297 76.3309C310.978 77.2451 313.969 78.8553 313.795 79.455C313.538 80.3423 311.582 80.5731 310.43 80.3059C308.278 79.8064 307.261 79.0351 305.373 76.8359C304.386 75.6861 302.979 74.6021 301.151 73.5839L304.628 71.7108Z" fill="#D4A181"/>
<path fill-rule="evenodd" clip-rule="evenodd" d="M290.235 64.9082C292.834 66.6587 299.852 71.173 304.484 73.741L299.697 76.066C295.433 76.8343 291.906 73.272 288.853 71.0394C286.447 69.2799 287.238 65.4482 290.235 64.9082Z" fill="#662C9F"/>
<path fill-rule="evenodd" clip-rule="evenodd" d="M293.162 60.0852C295.105 62.1907 304.215 70.3492 307.11 70.3492C310.005 70.3492 302.373 75.876 302.373 75.876C297.11 72.9285 296.098 74.5601 294.478 71.6651C294.629 74.4794 297.249 88.5763 296.098 91.0232C293.732 96.0535 279.88 91.3948 275.222 92.3118C272.305 82.8392 277.945 78.9896 277.95 72.9285C277.954 66.291 283.284 56.0742 284.068 56.0742H291.219C292.571 61.0067 291.219 57.9798 293.162 60.0852Z" fill="#9B67CE"/>
<path fill-rule="evenodd" clip-rule="evenodd" d="M313.29 76.6415C311.308 75.2358 310.53 75.3497 310.53 75.3497C310.376 75.3118 307.647 75.4325 307.48 75.7246C307.177 76.2545 308.853 77.2676 312.899 77.9814C313.219 78.0379 314.206 77.7462 314.163 77.4092C313.944 77.2047 313.658 76.9518 313.29 76.6415Z" fill="#E6C5A7"/>
<path d="M243 128V66" stroke="#808080" stroke-width="2" stroke-linecap="round" stroke-linejoin="round"/>
<path d="M242.834 65.8752C242.834 65.8752 240.042 63.0835 231.667 63.0835C223.292 63.0835 217.709 68.6668 209.334 68.6668C200.959 68.6668 198.167 65.8752 198.167 65.8752V32.3752C198.167 32.3752 200.959 35.1668 209.334 35.1668C217.709 35.1668 223.292 29.5835 231.667 29.5835C240.042 29.5835 242.834 32.3752 242.834 32.3752V65.8752Z" fill="#D21A94" stroke="#D21A94" stroke-width="2" stroke-linecap="round" stroke-linejoin="round"/>
<defs>
<filter id="filter0_d" x="73" y="67" width="439" height="439" filterUnits="userSpaceOnUse" color-interpolation-filters="sRGB">
<feFlood flood-opacity="0" result="BackgroundImageFix"/>
<feColorMatrix in="SourceAlpha" type="matrix" values="0 0 0 0 0 0 0 0 0 0 0 0 0 0 0 0 0 0 127 0"/>
<feOffset dx="25" dy="20"/>
<feGaussianBlur stdDeviation="35"/>
<feColorMatrix type="matrix" values="0 0 0 0 0 0 0 0 0 0.191667 0 0 0 0 0.179962 0 0 0 0.28 0"/>
<feBlend mode="normal" in2="BackgroundImageFix" result="effect1_dropShadow"/>
<feBlend mode="normal" in="SourceGraphic" in2="effect1_dropShadow" result="shape"/>
</filter>
<linearGradient id="paint0_linear" x1="382.763" y1="345.815" x2="147.101" y2="182.62" gradientUnits="userSpaceOnUse">
<stop stop-color="#7B7DF6"/>
<stop offset="1" stop-color="#E9F5FF"/>
</linearGradient>
<linearGradient id="paint1_linear" x1="310" y1="308.5" x2="183.5" y2="160.5" gradientUnits="userSpaceOnUse">
<stop stop-color="#15968E"/>
<stop offset="1" stop-color="#3EC1B9" stop-opacity="0.59"/>
</linearGradient>
</defs>
</svg>
