<svg width="652" height="139" viewBox="0 0 652 139" fill="none" xmlns="http://www.w3.org/2000/svg">
<g clip-path="url(#clip0)">
<path d="M89.7 139.2C128.194 139.2 159.4 107.994 159.4 69.5C159.4 31.0058 128.194 -0.199951 89.7 -0.199951C51.2057 -0.199951 20 31.0058 20 69.5C20 107.994 51.2057 139.2 89.7 139.2Z" fill="#3688C8"/>
<path d="M124.5 34.3H55.4004V104.8H124.5V34.3Z" fill="white"/>
<path d="M109.801 68.3C109.801 80 100.301 89.6 88.5008 89.6C76.8008 89.6 67.3008 80.1 67.3008 68.3C67.3008 56.5 76.8008 47 88.5008 47C100.301 47.1 109.801 56.6 109.801 68.3Z" fill="#353D47"/>
<path d="M244.4 57.8999L228.8 99.7999C227.9 102.2 226.7 103.5 225.2 103.6C223.7 103.8 222.3 103.7 221 103.5C219.7 103.3 218.5 102 217.4 99.7999L201.9 57.7999C201.9 53.7999 203.8 51.7999 207.7 51.7999C210.1 51.7999 211.7 52.4999 212.4 53.8999C213.1 55.2999 216.7 65.9999 223.2 85.8999C229.6 65.8999 233.2 55.2999 234 53.8999C234.8 52.4999 236.4 51.8 238.7 51.7C242.5 51.8 244.4 53.7999 244.4 57.8999Z" fill="#353D47"/>
<path d="M258.4 35.9999C257.4 36.4999 256.6 37.2 256.1 38.2C255.5 39.2 255.3 40.2 255.3 41.2C255.3 42.2 255.6 43.2 256.1 44.2C256.7 45.2 257.4 45.8999 258.4 46.3999C259.4 46.8999 260.4 47.2 261.5 47.2C262.6 47.2 263.6 46.8999 264.6 46.3999C265.6 45.8999 266.4 45.1 266.9 44.2C267.4 43.3 267.7 42.3 267.7 41.2C267.7 40.2 267.4 39.1 266.9 38.2C266.4 37.2 265.6 36.4999 264.6 35.9999C263.6 35.4999 262.6 35.2 261.6 35.2C260.4 35.2 259.4 35.4999 258.4 35.9999ZM261.7 103.8C257.5 103.8 255.2 101.8 255.2 97.7V63.5999C251 63.5999 249 61.5999 249 57.7999C249 53.6999 251.2 51.5999 255.3 51.5999L261.6 51.4999C265.8 51.5999 267.9 53.5999 267.9 57.5999V97.7999C268 101.7 265.9 103.8 261.7 103.8Z" fill="#353D47"/>
<path d="M307.1 63.8H291C286.9 63.8 284.9 65.2001 284.9 67.9001C284.9 70.4001 287 71.7001 291.1 71.7001H295C307 71.9001 313 77.2001 313 87.7001C312.9 98.4001 307 103.7 295 103.7H278.7C274.8 103.7 272.9 101.9 272.8 98.2001C272.8 94.0001 274.8 91.9001 278.6 91.9001H294.8C298.8 91.9001 300.8 90.5 300.9 87.8C300.9 85.2 298.9 83.8001 294.9 83.7001H291C278.9 83.8001 272.8 78.4001 272.8 67.6001C272.7 57.0001 278.7 51.8 290.8 51.8H306.9C310.9 51.8 312.9 53.8001 312.9 57.7001C312.8 61.7001 310.9 63.7 307.1 63.8Z" fill="#353D47"/>
<path d="M327.1 35.9999C326.1 36.4999 325.3 37.2 324.8 38.2C324.2 39.2 323.9 40.2 323.9 41.2C323.9 42.2 324.2 43.2 324.8 44.2C325.4 45.2 326.1 45.8999 327.1 46.3999C328.1 46.8999 329.1 47.2 330.2 47.2C331.3 47.2 332.3 46.8999 333.3 46.3999C334.3 45.8999 335.1 45.1 335.6 44.2C336.1 43.3 336.4 42.3 336.4 41.2C336.4 40.2 336.1 39.1 335.6 38.2C335 37.2 334.2 36.4999 333.3 35.9999C332.3 35.4999 331.3 35.2 330.3 35.2C329.1 35.2 328.1 35.4999 327.1 35.9999ZM330.2 103.8C325.9 103.8 323.7 101.8 323.7 97.7V63.5999C319.4 63.5999 317.6 61.5999 317.6 57.7999C317.6 53.6999 319.8 51.5999 324 51.5999L330.2 51.4999C334.4 51.5999 336.4 53.5999 336.4 57.5999V97.7999C336.5 101.7 334.4 103.8 330.2 103.8Z" fill="#353D47"/>
<path d="M359.001 63.7999C355.001 63.7999 353.501 65.5999 353.501 69.5999V85.2999C353.501 89.3999 355.001 91.7999 359.001 91.7999H367.101C371.201 91.7999 373.901 89.3999 373.901 85.2999V69.3999C373.901 65.5999 371.201 63.7999 367.101 63.7999H359.001ZM359.601 51.7999H367.101C379.201 51.7999 386.101 57.5999 386.101 69.5999V84.9999C386.101 97.1999 379.201 103.7 367.101 103.7H359.001C347.001 103.7 341.301 97.2999 341.301 85.3999V69.4999C341.301 57.4999 347.101 51.7 359.201 51.7H359.601V51.7999Z" fill="#353D47"/>
<path d="M390.9 97.6001V57.7001C390.9 53.8001 392.8 51.8 396.7 51.8H416.1C427.7 51.8 433.5 57.9001 433.5 70.2001V97.8C433.5 101.8 431.6 103.8 427.7 103.8C423.8 103.8 421.9 101.8 421.9 97.7001V69.9001C421.9 65.8001 419.9 63.7001 416 63.7001H402.5V97.5001C402.5 101.5 400.5 103.6 396.6 103.6C392.8 103.7 390.9 101.6 390.9 97.6001Z" fill="#353D47"/>
<path d="M473.501 71.9001C473.601 75.8001 471.001 77.8001 465.901 77.8001H450.401C445.401 77.7001 442.801 75.8001 442.801 71.9001C442.901 67.9001 445.401 65.9002 450.401 66.0002H465.901C471.101 65.9002 473.601 67.9001 473.501 71.9001Z" fill="#353D47"/>
<path d="M507.1 91.7C511.2 91.7 513.3 89.3999 513.3 85.5999V69.5999C513.3 65.4999 511.2 63.5999 507.1 63.5999H492.9V91.7H507.1ZM480.6 97.7V41.2C480.6 37.2 482.7 35.2 486.7 35.2C490.7 35.2 492.8 37.1999 492.8 41.2999V51.3999H507.1C519.2 51.3999 525.4 57.4 525.4 69.7V85.2999C525.4 97.2999 519.1 103.7 507 103.7H487C483 103.7 480.7 101.3 480.7 97.2999V97.7H480.6Z" fill="#353D47"/>
<path d="M547.299 63.7999C543.399 63.7999 542.299 65.5999 542.299 69.5999V85.2999C542.299 89.3999 543.299 91.7999 547.299 91.7999H555.399C559.399 91.7999 560.599 89.3999 560.599 85.2999V69.3999C560.599 65.5999 559.399 63.7999 555.399 63.7999H547.299ZM548.499 51.7999H555.399C567.399 51.7999 572.799 57.5999 572.799 69.5999V84.9999C572.799 97.1999 567.499 103.7 555.499 103.7H547.299C535.399 103.7 530.199 97.2999 530.199 85.3999V69.4999C530.199 57.4999 535.399 51.7 547.399 51.7H548.499V51.7999Z" fill="#353D47"/>
<path d="M618.1 93.2999L606.1 77.6999L618 62.1999C620.6 59.0999 620.5 56.2999 617.6 53.6999C614.7 50.9999 611.9 51.1999 609.2 54.2999L598.7 67.9999L588.1 54.1999C585.5 51.0999 582.7 50.8999 579.7 53.5999C576.9 56.1999 576.7 58.9999 579.4 62.0999L591.3 77.6999L579.3 93.2999C576.7 96.2999 576.8 99.1999 579.7 102C582.7 104.6 585.4 104.4 588 101.4L598.7 87.3999L609.4 101.4C612 104.4 614.7 104.5 617.7 102C620.6 99.1999 620.7 96.2999 618.1 93.2999Z" fill="#353D47"/>
</g>
<defs>
<clipPath id="clip0">
<rect width="652" height="139" fill="white"/>
</clipPath>
</defs>
</svg>
