<svg xmlns="http://www.w3.org/2000/svg" width="200.000000pt" height="32.7000000pt" viewBox="0 0 2000.000000 327.000000"
  preserveAspectRatio="xMidYMid meet">
  <g transform="translate(0.000000,327.000000) scale(0.100000,-0.100000)"
    fill="#8844EB" stroke="none">
    <path
      d="M40 1634 l0 -1565 963 4 c859 3 973 5 1066 21 186 31 289 63 428 132 111 55 146 77 214 141 166 156 236 306 260 550 19 203 -17 391 -103 538 -58 99 -183 219 -285 275 -46 25 -83 48 -83 51 0 4 18 19 40 34 126 87 236 263 267 425 20 106 12 263 -17 370 -93 331 -393 532 -869 580 -63 6 -448 10 -992 10 l-889 0 0 -1566z m1800 956 c97 -16 216 -58 262 -93 56 -43 82 -97 86 -180 8 -124 -60 -212 -207 -272 -123 -50 -189 -55 -777 -55 l-544 0 0 305 0 305 558 0 c331 0 583 -4 622 -10z m135 -1223 c189 -45 297 -108 345 -202 35 -69 36 -197 2 -267 -45 -91 -137 -152 -301 -196 l-96 -26 -632 -4 -633 -3 0 361 0 361 623 -4 c535 -3 632 -6 692 -20z">
    </path>
    <path
      d="M3582 2268 c3 -851 5 -941 22 -1028 120 -629 571 -1054 1221 -1152 133 -20 439 -14 579 11 590 106 1036 531 1150 1096 32 160 36 276 36 1138 l0 867 -294 0 -295 0 -4 -887 c-3 -770 -6 -897 -20 -953 -86 -351 -331 -590 -682 -665 -118 -26 -315 -24 -427 3 -320 78 -559 305 -641 607 -32 117 -37 249 -37 1073 l0 822 -305 0 -306 0 3 -932z">
    </path>
    <path
      d="M7210 1635 l0 -1566 963 4 c856 3 974 5 1067 21 379 62 629 199 774 423 101 156 130 271 130 503 -1 137 -4 178 -22 243 -52 189 -177 351 -355 461 l-96 59 65 50 c114 88 209 239 239 382 8 39 15 113 15 167 1 434 -260 698 -785 795 -79 15 -204 17 -1042 20 l-953 4 0 -1566z m1825 950 c228 -40 330 -129 329 -286 -1 -135 -93 -224 -291 -281 -77 -23 -85 -23 -658 -23 l-580 0 -3 303 -2 302 559 0 c456 0 574 -3 646 -15z m135 -1223 c182 -41 310 -130 340 -237 18 -63 9 -179 -18 -230 -60 -116 -216 -193 -440 -215 -67 -7 -314 -10 -662 -8 l-555 3 -3 358 -2 358 622 -4 c593 -3 628 -5 718 -25z">
    </path>
    <path
      d="M10770 1635 l0 -1565 893 0 c1033 0 1129 5 1372 75 115 33 292 121 372 185 131 105 231 260 274 425 45 172 35 444 -22 588 -64 163 -196 309 -364 402 l-65 37 60 45 c112 84 207 231 245 378 20 79 20 274 -1 368 -23 104 -91 240 -159 314 -98 109 -263 203 -437 252 -198 55 -188 55 -1215 58 l-953 4 0 -1566z m1892 938 c156 -44 235 -106 258 -202 32 -135 -29 -244 -175 -312 -137 -64 -132 -64 -770 -64 l-580 0 -3 303 -2 303 597 -3 c576 -4 601 -5 675 -25z m66 -1211 c117 -26 207 -68 268 -124 63 -58 85 -110 85 -201 0 -164 -74 -252 -266 -316 -140 -47 -243 -52 -865 -49 l-555 3 -3 358 -2 358 622 -4 c590 -3 628 -5 716 -25z">
    </path>
    <path d="M14330 1635 l0 -1565 1235 0 1235 0 0 300 0 300 -925 0 -925 0 0 1265 0 1265 -310 0 -310 0 0 -1565z"></path>
    <path
      d="M17430 1635 l0 -1565 1250 0 1250 0 0 300 0 300 -942 2 -943 3 0 350 0 350 828 3 827 2 0 300 0 300 -830 0 -830 0 2 308 3 307 943 3 942 2 0 300 0 300 -1250 0 -1250 0 0 -1565z">
    </path>
  </g>
</svg>