<svg width="95" height="90" viewBox="0 0 95 90" fill="none" xmlns="http://www.w3.org/2000/svg">
<path d="M94.3505 28.2055V35.3022C94.3505 35.4058 94.2658 35.4903 94.1621 35.4903H76.4769C76.3732 35.4903 76.2886 35.4058 76.2886 35.4279V1.10197C76.2886 0.872633 76.3732 0.788086 76.4769 0.788086H83.4985C83.6022 0.788086 83.6869 0.872633 83.6869 0.976202L83.7006 27.8187C83.7006 27.9223 83.7853 28.0069 83.889 28.0069L94.1611 28.0174C94.2669 28.0174 94.3505 28.1009 94.3505 28.2055Z" fill="#000"/>
<path d="M15.859 37.3604H0.634877C0.531182 37.3604 0.446533 37.4449 0.446533 37.5485V89.7783C0.446533 89.8818 0.531182 89.9664 0.634877 89.9664H15.8579C15.9616 89.9664 16.0462 89.8818 16.0462 89.7783V82.7968C16.0462 82.6932 15.9616 82.6087 15.8579 82.6087H7.93689C7.83319 82.6087 7.74855 82.5242 7.74855 82.4206V69.8686C7.74855 69.765 7.83319 69.6805 7.93689 69.6805H15.1013C15.205 69.6805 15.2897 69.5959 15.2897 69.4923V62.0744C15.2897 61.9708 15.205 61.8863 15.1013 61.8863H7.93689C7.83319 61.8863 7.74855 61.8018 7.74855 61.6982V44.9072C7.74855 44.8036 7.83319 44.7191 7.93689 44.7191H15.859C15.9626 44.7191 16.0473 44.6345 16.0473 44.531V37.5506C16.0473 37.4449 15.9626 37.3604 15.859 37.3604Z" fill="#000"/>
<path d="M56.3591 7.36825C56.3792 7.36825 56.3983 7.36825 56.4184 7.36825C62.0909 7.39361 67.0757 11.5449 67.0757 18.038C67.0757 24.6242 62.1554 28.6328 56.5358 28.7036C56.4776 28.7047 56.4184 28.7047 56.3602 28.7047C56.3009 28.7047 56.1951 28.7057 56.1369 28.7047C50.5173 28.6318 45.5357 24.6211 45.5357 18.0349C45.5357 11.5364 50.6379 7.38516 56.3179 7.36825C56.3306 7.36825 56.3454 7.36825 56.3591 7.36825ZM56.3581 36.0729C56.4004 36.0729 56.4427 36.0729 56.485 36.0729C66.5477 36.0211 75.0728 29.5935 75.0728 18.0391C75.0718 6.7648 66.5117 0.0285345 56.4194 0C56.3993 0 56.3792 0 56.3581 0C56.3401 0 56.3221 0 56.3052 0C46.2097 0.0221935 37.5375 6.7574 37.5375 18.0338C37.5375 29.5956 46.0701 36.0254 56.1412 36.0729C56.1771 36.0729 56.3221 36.0729 56.3581 36.0729Z" fill="#000"/>
<path d="M69.9198 44.5768H74.5279C74.6316 44.5768 74.7162 44.4922 74.7162 44.3887V37.441C74.7162 37.3375 74.6316 37.2529 74.5279 37.2529L57.449 37.2561C57.3453 37.2561 57.2606 37.3406 57.2606 37.4442V44.3887C57.2606 44.4922 57.3453 44.5768 57.449 44.5768H62.057C62.1607 44.5768 62.2454 44.6613 62.2454 44.7649V78.4082C62.2454 78.962 62.5956 79.2589 62.5956 79.2589C62.5956 79.2589 65.3763 81.268 69.1379 80.2682C69.4659 80.1805 69.7326 79.9533 69.7326 79.6151V44.7639C69.7315 44.6613 69.8161 44.5768 69.9198 44.5768Z" fill="#000"/>
<path d="M8.54952 36.1228C11.3556 36.1228 13.4856 35.2224 14.8781 33.4479C16.2568 31.6904 16.9562 29.0166 16.9562 25.5005V19.7831C16.9562 19.6795 16.8716 19.595 16.7679 19.595H10.2361C10.1325 19.595 10.0478 19.6795 10.0478 19.7831V27.1534C10.0478 29.3548 9.57166 30.1295 8.54952 30.1295C7.48507 30.1295 7.05124 29.4457 7.05124 27.1534V9.19676C7.05124 6.90449 7.48507 6.09495 8.54952 6.09495C9.57166 6.09495 10.0478 6.99537 10.0478 9.19676V15.3697C10.0478 15.4733 10.1325 15.5578 10.2361 15.5578H16.7679C16.8716 15.5578 16.9562 15.4733 16.9562 15.3697V10.7239C16.9562 7.2078 16.2568 4.53401 14.8781 2.77649C13.4845 0.999952 11.3556 0.100586 8.54952 0.100586C2.87594 0.100586 0 3.6748 0 10.7228V25.4995C0 32.5486 2.87594 36.1228 8.54952 36.1228Z" fill="#000"/>
<path d="M27.3405 36.1228C30.1868 36.1228 32.3982 35.2234 33.9145 33.4501C35.4593 31.6429 36.2423 28.968 36.2423 25.5005V10.7239C36.2423 7.25641 35.4593 4.58156 33.9145 2.77438C32.3982 0.999952 30.1857 0.100586 27.3405 0.100586C24.4942 0.100586 22.2827 0.999952 20.7664 2.77332C19.2216 4.58051 18.4386 7.2543 18.4386 10.7228V25.4995C18.4386 28.967 19.2216 31.6418 20.7664 33.449C22.2817 35.2234 24.4942 36.1228 27.3405 36.1228ZM28.8388 27.1524C28.8388 29.3538 28.3626 30.1284 27.3405 30.1284C26.276 30.1284 25.8422 29.4446 25.8422 27.1524V9.1957C25.8422 6.90343 26.276 6.09389 27.3405 6.09389C28.3626 6.09389 28.8388 6.99432 28.8388 9.1957V27.1524Z" fill="#000"/>
<path d="M31.6099 37.4586L37.8877 89.8375C37.8951 89.903 37.8443 89.9611 37.7776 89.9611H29.8439C29.7857 89.9611 29.737 89.9157 29.7339 89.8586L28.953 77.2928C28.9488 77.2347 28.9011 77.1903 28.8429 77.1903H25.4126C25.3544 77.1903 25.3057 77.2358 25.3025 77.2928L24.5227 89.8586C24.5185 89.9167 24.4708 89.9611 24.4126 89.9611H16.9032C16.8366 89.9611 16.7858 89.903 16.7932 89.8375L23.071 37.4586C23.0773 37.4026 23.1249 37.3604 23.181 37.3604H31.502C31.5559 37.3604 31.6036 37.4026 31.6099 37.4586ZM25.9945 69.7016H28.261C28.3255 69.7016 28.3763 69.6466 28.371 69.5832L27.5849 58.9473L27.2029 49.7464C27.2008 49.6873 27.1521 49.6408 27.0918 49.6408C27.0325 49.6408 26.9838 49.6873 26.9807 49.7464L26.5987 58.9473L25.8824 69.5832C25.8792 69.6466 25.93 69.7016 25.9945 69.7016Z" fill="#000"/>
<path d="M86.8168 69.6202H83.8816C83.7779 69.6202 83.6933 69.7048 83.6933 69.8084V89.7794C83.6933 89.8829 83.6086 89.9675 83.5049 89.9675H76.478C76.3743 89.9675 76.2897 89.8829 76.2897 89.7794V37.4967C76.2897 37.3931 76.3743 37.3086 76.478 37.3086H83.5049C83.6086 37.3086 83.6933 37.3931 83.6933 37.4967V61.6168C83.6933 61.7204 83.7779 61.805 83.8816 61.805H86.8168C86.9205 61.805 87.0052 61.7204 87.0052 61.6168V37.4967C87.0052 37.3931 87.0898 37.3086 87.1935 37.3086H94.1611C94.2648 37.3086 94.3495 37.3931 94.3495 37.4967V89.7794C94.3495 89.8829 94.2648 89.9675 94.1611 89.9675H87.1935C87.0898 89.9675 87.0052 89.8829 87.0052 89.7794V69.8094C87.0052 69.7048 86.9216 69.6202 86.8168 69.6202Z" fill="#000"/>
<path d="M50.1078 65.1717C52.7182 65.1717 56.3538 64.1846 56.3538 57.7146V47.494C56.3538 47.494 56.8755 37.3389 46.9684 37.3389H38.9564C38.8527 37.3389 38.7681 37.4234 38.7681 37.527V89.7505C38.7681 89.854 38.8527 89.9386 38.9564 89.9386H46.1314C46.2351 89.9386 46.3198 89.854 46.3198 89.7505V69.659C46.3198 69.585 46.3801 69.5258 46.4531 69.5258C46.5102 69.5258 46.4531 69.5258 46.5102 69.5258C46.5547 69.5258 46.5981 69.5385 46.634 69.5639C48.2604 70.7 49.9385 76.316 49.9999 76.5157C50.001 76.521 50.0031 76.5242 50.0052 76.5295C51.9532 82.266 55.3941 86.5356 59.6276 88.5309C61.9671 89.6342 64.2886 89.9999 66.3413 89.9999C69.3231 89.9999 71.7874 88.9039 72.6953 88.1832C72.982 87.9559 73.1799 87.6717 73.0286 87.3493L70.8997 82.3653C70.7663 82.0799 70.5558 81.504 70.0161 81.9204C69.048 82.6665 66.0313 83.6567 62.8157 82.0514C59.6107 80.4514 57.6363 77.5366 56.3009 71.6374C55.8079 69.4561 54.9254 65.1717 50.1078 65.1717ZM49.1608 57.944C49.1608 60.659 47.9842 61.4918 46.7674 61.4918H46.4066C46.3029 61.4918 46.2182 61.4072 46.2182 61.3036V43.7148C46.2182 43.6112 46.3029 43.5266 46.4066 43.5266H47.4583C48.6751 43.5266 49.1598 44.8033 49.1598 47.1442V57.944H49.1608Z" fill="#000"/>
</svg>
