<svg xmlns="http://www.w3.org/2000/svg" width="199.708" height="132.588" viewBox="0 0 199.708 132.588">
  <defs>
    <style>
      .a {
        fill: none;
      }

      .b {
        fill: #000;
      }
    </style>
  </defs>
  <g transform="translate(-444.063 -184)">
    <g transform="translate(444.063 184)">
      <path class="a"
        d="M108.221,20.135a1.518,1.518,0,0,1,1.581,1.545,1.892,1.892,0,0,1-.634,1.384,11.3,11.3,0,0,1-8.271,3.143c-7.958,0-13.174-5.594-13.174-13.1S92.939,0,100.9,0a11.928,11.928,0,0,1,7.956,2.982,1.953,1.953,0,0,1,.686,1.439,1.6,1.6,0,0,1-1.633,1.6c-.475,0-.843-.107-1.792-1.012a7.471,7.471,0,0,0-5.164-1.971c-5.744,0-9.432,4.369-9.432,10.068,0,5.646,3.635,10.014,9.379,10.014a8.062,8.062,0,0,0,5.9-2.29,2.052,2.052,0,0,1,1.423-.692"
        transform="translate(0.785)" />
      <path class="a"
        d="M108.221,125.572a1.518,1.518,0,0,1,1.581,1.545,1.894,1.894,0,0,1-.634,1.385,11.309,11.309,0,0,1-8.271,3.143c-7.958,0-13.174-5.594-13.174-13.1s5.216-13.1,13.174-13.1a11.924,11.924,0,0,1,7.956,2.983,1.949,1.949,0,0,1,.686,1.438,1.6,1.6,0,0,1-1.633,1.6c-.475,0-.843-.106-1.792-1.012a7.475,7.475,0,0,0-5.164-1.97c-5.744,0-9.432,4.369-9.432,10.067,0,5.647,3.635,10.015,9.379,10.015a8.059,8.059,0,0,0,5.9-2.291,2.056,2.056,0,0,1,1.423-.692"
        transform="translate(0.785 0.944)" />
      <path class="a"
        d="M196.552,73.146a1.518,1.518,0,0,1,1.581,1.545,1.892,1.892,0,0,1-.634,1.384,11.306,11.306,0,0,1-8.272,3.143c-7.957,0-13.173-5.593-13.173-13.1s5.216-13.1,13.173-13.1a11.931,11.931,0,0,1,7.957,2.982,1.952,1.952,0,0,1,.685,1.439,1.6,1.6,0,0,1-1.633,1.6c-.474,0-.842-.107-1.791-1.012a7.472,7.472,0,0,0-5.165-1.97c-5.743,0-9.432,4.368-9.432,10.067,0,5.646,3.635,10.014,9.379,10.014a8.059,8.059,0,0,0,5.9-2.29,2.055,2.055,0,0,1,1.424-.692"
        transform="translate(1.576 0.474)" />
      <path class="a"
        d="M20.5,73.146a1.518,1.518,0,0,1,1.581,1.545,1.894,1.894,0,0,1-.633,1.384,11.309,11.309,0,0,1-8.272,3.143C5.216,79.217,0,73.625,0,66.114s5.216-13.1,13.174-13.1a11.926,11.926,0,0,1,7.956,2.982,1.949,1.949,0,0,1,.686,1.439,1.6,1.6,0,0,1-1.633,1.6c-.474,0-.843-.107-1.792-1.012a7.471,7.471,0,0,0-5.164-1.97c-5.743,0-9.432,4.368-9.432,10.067,0,5.646,3.635,10.014,9.379,10.014a8.062,8.062,0,0,0,5.9-2.29,2.052,2.052,0,0,1,1.423-.692"
        transform="translate(0 0.474)" />
    </g>
    <g transform="translate(466.142 210.207)">
      <g transform="translate(0 0)">
        <path class="b"
          d="M130.022,64.74c-.212-4.688-3.057-8.15-8.168-8.15a8.775,8.775,0,0,0-8.643,8.15Zm-16.864,2.877a9.045,9.045,0,0,0,9.011,9.056,9.249,9.249,0,0,0,7.114-3.25,1.789,1.789,0,0,1,1.37-.692,1.57,1.57,0,0,1,1.633,1.6,1.858,1.858,0,0,1-.527,1.278,12.453,12.453,0,0,1-9.591,4.156c-7.325,0-12.752-5.594-12.752-13.1s5.427-13.105,12.436-13.105c7.114,0,11.8,4.848,11.8,12.2,0,1.225-.633,1.865-1.95,1.865Z"
          transform="translate(-21.1 -25.727)" />
        <path class="b"
          d="M109.035,76.807a1.605,1.605,0,0,1-1.558-.884,4.228,4.228,0,0,1-.343-1.838V46.491a1.558,1.558,0,0,0-.477-1.138,1.969,1.969,0,0,0-2.566,0,1.554,1.554,0,0,0-.478,1.138V74.329a6.949,6.949,0,0,0,1.039,4.221,3.731,3.731,0,0,0,3.179,1.288,2.255,2.255,0,0,0,1.59-.457,1.65,1.65,0,0,0,.471-1.253,2.018,2.018,0,0,0-.246-1.012.606.606,0,0,0-.611-.31"
          transform="translate(-21.152 -25.805)" />
        <path class="b"
          d="M175.87,45.769a1.725,1.725,0,0,0-1.031-.646,4.747,4.747,0,0,0-.894-.153,15.592,15.592,0,0,0-1.631-.074,8.119,8.119,0,0,0-6.606,2.773c-1.661,1.853-2.5,4.5-2.5,7.924v22.6a1.555,1.555,0,0,0,.482,1.176,1.713,1.713,0,0,0,1.251.475,1.7,1.7,0,0,0,1.269-.469,1.6,1.6,0,0,0,.463-1.182V58h5.522a1.465,1.465,0,0,0,1.1-.443,1.564,1.564,0,0,0,.439-1.158,1.427,1.427,0,0,0-.431-1.077,1.518,1.518,0,0,0-1.1-.426h-5.5l.03-.472a7.717,7.717,0,0,1,1.528-4.612,4.734,4.734,0,0,1,4.113-1.711,9.115,9.115,0,0,1,1.348.08,6.564,6.564,0,0,0,.972.069,1.607,1.607,0,0,0,1.077-.37,1.475,1.475,0,0,0,.41-1.181,1.692,1.692,0,0,0-.3-.929"
          transform="translate(-20.618 -25.805)" />
        <path class="b"
          d="M42.381,73.69a1.518,1.518,0,0,1,1.581,1.545,1.9,1.9,0,0,1-.633,1.385,11.313,11.313,0,0,1-8.272,3.143c-7.958,0-13.174-5.594-13.174-13.1s5.216-13.1,13.174-13.1a11.921,11.921,0,0,1,7.956,2.982,1.947,1.947,0,0,1,.686,1.438,1.6,1.6,0,0,1-1.633,1.6c-.474,0-.843-.106-1.792-1.011a7.471,7.471,0,0,0-5.164-1.971c-5.743,0-9.432,4.369-9.432,10.067,0,5.647,3.635,10.015,9.379,10.015a8.059,8.059,0,0,0,5.9-2.291,2.056,2.056,0,0,1,1.423-.692"
          transform="translate(-21.883 -25.727)" />
        <path class="b"
          d="M63.788,53.557a1.9,1.9,0,0,0-1.24.433,1.562,1.562,0,0,0-.57,1.247V69.7a8.6,8.6,0,0,1-.422,2.733,5.741,5.741,0,0,1-1.238,2.112,6.048,6.048,0,0,1-2,1.4,7.458,7.458,0,0,1-5.439,0,6.032,6.032,0,0,1-2.006-1.4,5.731,5.731,0,0,1-1.238-2.111,8.592,8.592,0,0,1-.422-2.734V55.237a1.541,1.541,0,0,0-.571-1.247,1.9,1.9,0,0,0-1.24-.433,1.708,1.708,0,0,0-1.213.454,1.607,1.607,0,0,0-.5,1.226V69.6a12.5,12.5,0,0,0,.622,4.021,9.041,9.041,0,0,0,1.887,3.23A8.613,8.613,0,0,0,51.318,79a11.174,11.174,0,0,0,4.276.764A11.046,11.046,0,0,0,59.818,79a8.605,8.605,0,0,0,3.122-2.151,9.338,9.338,0,0,0,1.911-3.225A12.066,12.066,0,0,0,65.5,69.6V55.237A1.609,1.609,0,0,0,65,54.01a1.717,1.717,0,0,0-1.213-.453"
          transform="translate(-21.67 -25.727)" />
        <path class="b"
          d="M87.675,76.163c-5.318,0-8.652-4.265-8.652-9.528s3.558-9.528,8.652-9.528c4.609,0,8.653,4.024,8.653,9.528,0,5.843-4.044,9.528-8.653,9.528m14.678.882a.6.6,0,0,0-.609-.309,1.6,1.6,0,0,1-1.555-.883,4.222,4.222,0,0,1-.343-1.833V55.167a1.551,1.551,0,0,0-.476-1.136,1.966,1.966,0,0,0-2.561,0,1.551,1.551,0,0,0-.476,1.136v3.389a12.2,12.2,0,0,0-2.924-3.182,9.78,9.78,0,0,0-6.025-1.817,11.062,11.062,0,0,0-4.7,1A11.779,11.779,0,0,0,78.93,57.3a12.726,12.726,0,0,0-2.505,4.167,14.822,14.822,0,0,0-.907,5.214,14.992,14.992,0,0,0,.881,5.188,12.445,12.445,0,0,0,2.483,4.144,11.843,11.843,0,0,0,3.726,2.742,10.926,10.926,0,0,0,4.677,1,9.792,9.792,0,0,0,6-1.89A12.607,12.607,0,0,0,96.337,74.6v-.182a6.864,6.864,0,0,0,1.032,4.058,3.726,3.726,0,0,0,3.173,1.285,2.248,2.248,0,0,0,1.586-.456,1.642,1.642,0,0,0,.47-1.25,2.011,2.011,0,0,0-.245-1.011"
          transform="translate(-21.403 -25.727)" />
        <path class="b"
          d="M88.411,50.425a1.637,1.637,0,0,0,1.316-.525,1.837,1.837,0,0,0,.418-1.228c0-.481-.351-1.957-2.7-1.957A17.491,17.491,0,0,0,77.088,49.9c-3.815,2.553-5.074,6.717-5.408,7.227V55.267a1.542,1.542,0,0,0-1.733-1.651,1.711,1.711,0,0,0-1.267.471,1.617,1.617,0,0,0-.464,1.179V78.122a1.592,1.592,0,0,0,.541,1.255A1.827,1.827,0,0,0,70,79.823a1.729,1.729,0,0,0,1.228-.458,1.633,1.633,0,0,0,.5-1.243V69.944a33.964,33.964,0,0,1,.3-6.474,19.274,19.274,0,0,1,2.245-6.019,13.691,13.691,0,0,1,3.977-4.425c.3-.207.606-.4.923-.578a18.81,18.81,0,0,1,9.232-2.022"
          transform="translate(-21.468 -25.788)" />
        <path class="b"
          d="M146.7,76.163c-5.318,0-8.652-4.265-8.652-9.528s3.557-9.528,8.652-9.528c4.609,0,8.653,4.024,8.653,9.528,0,5.843-4.044,9.528-8.653,9.528m14.678.882a.6.6,0,0,0-.609-.309,1.6,1.6,0,0,1-1.556-.883,4.238,4.238,0,0,1-.342-1.833V55.167a1.551,1.551,0,0,0-.476-1.136,1.966,1.966,0,0,0-2.561,0,1.551,1.551,0,0,0-.476,1.136v3.389a12.23,12.23,0,0,0-2.923-3.182,9.785,9.785,0,0,0-6.026-1.817,11.062,11.062,0,0,0-4.7,1A11.794,11.794,0,0,0,137.95,57.3a12.742,12.742,0,0,0-2.5,4.167,14.822,14.822,0,0,0-.907,5.214,14.991,14.991,0,0,0,.881,5.188,12.444,12.444,0,0,0,2.483,4.144,11.843,11.843,0,0,0,3.726,2.742,10.926,10.926,0,0,0,4.677,1,9.792,9.792,0,0,0,6-1.89,12.607,12.607,0,0,0,3.051-3.273v-.182a6.864,6.864,0,0,0,1.032,4.058,3.725,3.725,0,0,0,3.173,1.285,2.248,2.248,0,0,0,1.586-.456,1.642,1.642,0,0,0,.47-1.25,2.012,2.012,0,0,0-.245-1.011"
          transform="translate(-20.875 -25.727)" />
        <path class="b"
          d="M112.567,26.027c-.333-.32-2.806.887-5.38,1.163s-6.014.439-9.625,4.022c-4.814,4.78-2.344,11.746-2.151,11.249s-1.392-5.358,3.065-9.842,11.086-3.836,11.086-3.836-.5,7.545-4.275,11.215A10.473,10.473,0,0,1,98.6,43.26l.174-.837a16.666,16.666,0,0,1,.482-2.177,7.692,7.692,0,0,1,.923-1.912,12.345,12.345,0,0,1,1.359-1.679c.123-.131.244-.271.377-.395.027-.028.31-.285.221-.333-.064-.035-.168,0-.231.02a2.364,2.364,0,0,0-.453.2,5.219,5.219,0,0,0-.626.4,7.736,7.736,0,0,0-.748.637,9.641,9.641,0,0,0-.82.9,12.052,12.052,0,0,0-.841,1.195,14.443,14.443,0,0,0-.813,1.519c-.349.754-.6,1.545-.932,2.3a15.75,15.75,0,0,1-1.2,2.208,2.311,2.311,0,0,1-1.491,1.129,3.769,3.769,0,0,1-.749.095,2.849,2.849,0,0,0-1.439.414,1.869,1.869,0,0,0-.5,2.462c.49.78,1.8.79,2.577.521a5.439,5.439,0,0,0,2.188-1.888L96.092,48l.077-.1.118-.162.151-.208.177-.243c.064-.089.129-.177.193-.265l.2-.278.2-.281c.067-.09.132-.181.2-.271l.183-.25.16-.22.128-.177.069-.094a.425.425,0,0,1,.067-.086.393.393,0,0,1,.218-.079,1.843,1.843,0,0,1,.2-.011l.079-.006c.029,0,.061-.009.091-.009a16.346,16.346,0,0,0,2.631-.566,12.884,12.884,0,0,0,3.557-1.65,8.519,8.519,0,0,0,1.18-.973c4.349-4.317,4.811-9.386,5.421-11.781s1.507-3.938,1.174-4.259"
          transform="translate(-21.264 -25.974)" />
        <g transform="translate(3.795 61.824)">
          <path class="b" d="M27.425,87.25v2.127H25.644V87.25Zm-1.781,5.244h1.781v12.859H25.644Z"
            transform="translate(-25.644 -87.25)" />
          <path class="b"
            d="M33.159,92.449v1.731h.049A5.279,5.279,0,0,1,37.017,92.2a3.421,3.421,0,0,1,3.71,3.758v9.348H38.946v-9.3c0-1.706-.816-2.275-2.1-2.275a5.946,5.946,0,0,0-3.685,1.953v9.62h-1.78V92.449Z"
            transform="translate(-25.593 -87.206)" />
          <path class="b"
            d="M44.632,92.485v-4.23h1.78v4.23H49.38v1.533H46.411v9.15c0,.594.421.891,1.459.891a9.964,9.964,0,0,0,1.583-.124v1.459a8.192,8.192,0,0,1-2.077.2c-1.928,0-2.744-.494-2.744-2.127V94.017h-2.1V92.485Z"
            transform="translate(-25.493 -87.241)" />
          <path class="b"
            d="M61.029,102.564a5.16,5.16,0,0,1-4.946,2.992c-2.869,0-5.59-1.979-5.59-6.677,0-4.155,2.077-6.676,5.244-6.676,2.671,0,4.9,1.73,4.9,5.836v1.188H52.275c0,2.819,1.682,4.8,3.809,4.8a3.976,3.976,0,0,0,3.561-2.176Zm-2.176-4.872c0-2.374-1.138-3.957-3.067-3.957-2.151,0-3.313,1.583-3.462,3.957Z"
            transform="translate(-25.422 -87.206)" />
          <path class="b"
            d="M62.748,92.449h1.781V95h.049c.989-1.756,2.052-2.745,4.179-2.745v1.781c-2.226.049-3.388,1.508-4.229,4.155v7.122H62.748Z"
            transform="translate(-25.312 -87.205)" />
          <path class="b"
            d="M72.42,92.449v1.731h.049A5.279,5.279,0,0,1,76.278,92.2a3.42,3.42,0,0,1,3.709,3.758v9.348h-1.78v-9.3c0-1.706-.816-2.275-2.1-2.275a5.946,5.946,0,0,0-3.685,1.953v9.62H70.639V92.449Z"
            transform="translate(-25.241 -87.206)" />
          <path class="b"
            d="M82.749,94.922a5.264,5.264,0,0,1,4.823-2.72c2.176,0,4.451,1.038,4.451,3.857v6.479a9.947,9.947,0,0,0,.3,2.77H90.49l-.2-1.78a5.744,5.744,0,0,1-4.254,2.027,3.39,3.39,0,0,1-3.66-3.536c0-2.819,2.152-4.229,7.865-5.243v-.692c0-1.707-1.113-2.35-2.646-2.35a3.325,3.325,0,0,0-3.289,2Zm7.493,3.437c-4.081.717-6.084,1.9-6.084,3.685a2.112,2.112,0,0,0,2.127,1.979,5.989,5.989,0,0,0,3.957-2.127Z"
            transform="translate(-25.136 -87.206)" />
          <path class="b"
            d="M95.411,92.485v-4.23h1.781v4.23h2.967v1.533H97.191v9.15c0,.594.42.891,1.459.891a9.961,9.961,0,0,0,1.582-.124v1.459a8.189,8.189,0,0,1-2.076.2c-1.929,0-2.745-.494-2.745-2.127V94.017h-2.1V92.485Z"
            transform="translate(-25.038 -87.241)" />
          <path class="b" d="M104.6,87.25v2.127h-1.78V87.25Zm-1.78,5.244h1.78v12.859h-1.78Z"
            transform="translate(-24.953 -87.25)" />
          <path class="b"
            d="M112.546,105.555c-3.512,0-5.268-2.967-5.268-6.677s1.756-6.676,5.268-6.676,5.267,2.967,5.267,6.676S116.057,105.555,112.546,105.555Zm0-11.821c-2.127,0-3.488,1.83-3.488,5.144s1.361,5.145,3.488,5.145,3.486-1.83,3.486-5.145S114.672,93.735,112.546,93.735Z"
            transform="translate(-24.913 -87.206)" />
          <path class="b"
            d="M121.852,92.449v1.731h.049a5.277,5.277,0,0,1,3.808-1.979,3.42,3.42,0,0,1,3.71,3.758v9.348h-1.781v-9.3c0-1.706-.816-2.275-2.1-2.275a5.944,5.944,0,0,0-3.685,1.953v9.62h-1.781V92.449Z"
            transform="translate(-24.799 -87.206)" />
          <path class="b"
            d="M132.181,94.922A5.261,5.261,0,0,1,137,92.2c2.176,0,4.451,1.038,4.451,3.857v6.479a9.988,9.988,0,0,0,.3,2.77h-1.829l-.2-1.78a5.742,5.742,0,0,1-4.253,2.027,3.39,3.39,0,0,1-3.66-3.536c0-2.819,2.151-4.229,7.864-5.243v-.692c0-1.707-1.113-2.35-2.646-2.35a3.324,3.324,0,0,0-3.288,2Zm7.492,3.437c-4.08.717-6.083,1.9-6.083,3.685a2.111,2.111,0,0,0,2.126,1.979,5.987,5.987,0,0,0,3.957-2.127Z"
            transform="translate(-24.694 -87.206)" />
          <path class="b" d="M146.6,87.5V105.35h-1.78V87.5Z" transform="translate(-24.577 -87.248)" />
        </g>
      </g>
    </g>
  </g>
  <style id="autoconsent-prehide" />
</svg>