<svg xmlns="http://www.w3.org/2000/svg" viewBox="0 0 112.37 49.52"><title>defty-logo</title><g id="Layer_2" data-name="Layer 2"><g id="Layer_1-2" data-name="Layer 1"><path d="M9.59,15.33a11.93,11.93,0,0,1,4.75,1L14.18,1.92A1,1,0,0,1,15.1,1L18,.94a1,1,0,0,1,.95.93l.37,32.63a1,1,0,0,1-.93,1H16.87c-.44,0-.74-.33-.89-.82l-.41-1.43A8.81,8.81,0,0,1,9.34,36C4.11,36.1.06,31.46,0,25.79S4.12,15.39,9.59,15.33ZM9.88,31.8a5.31,5.31,0,0,0,4.65-3l-.09-8a8.19,8.19,0,0,0-4.3-1.13c-3.31,0-5.59,2.77-5.55,6.12S6.72,31.83,9.88,31.8Z" style="fill:#272525"/><path d="M31.68,15.06a8.86,8.86,0,0,1,9.17,9,10,10,0,0,1-.08,1.34.89.89,0,0,1-.88.84l-13.4.16a5.7,5.7,0,0,0,5.72,5.21,8.45,8.45,0,0,0,4.38-1.48c.58-.35.93-.56,1.33-.07l1.4,1.86a.76.76,0,0,1-.09,1.28A11.3,11.3,0,0,1,32,35.76c-6,.07-10-4.57-10-10.24S25.77,15.12,31.68,15.06Zm4.58,8.13a4.67,4.67,0,0,0-4.58-4.34,5,5,0,0,0-5,4.45Z" style="fill:#272525"/><path d="M46.16,19.47l-2.31,0a.93.93,0,0,1-1-.92l0-2.22a.92.92,0,0,1,.93-1l2.32,0-.07-6.12C46,3.15,49.59.05,54.32,0A8.87,8.87,0,0,1,60,1.91.93.93,0,0,1,60.18,3L59,5.27c-.24.45-.73.5-1.23.16a6.74,6.74,0,0,0-3.27-1.14c-2.17,0-3.68,1.62-3.64,4.92l.07,6.11,5.32-.06a.91.91,0,0,1,1,.93l0,2.22a.94.94,0,0,1-.93.94L51,19.41l.16,14.69a1,1,0,0,1-.92.95l-2.91,0a1,1,0,0,1-1-.92Z" style="fill:#272525"/><path d="M62.43,19.28l-2.07,0a1,1,0,0,1-1-.93l0-2.22a.89.89,0,0,1,.92-.94l2.07,0-.06-5.47a1,1,0,0,1,.93-1l2.81-.08a.94.94,0,0,1,.9.93L67,15.14l5-.06A.91.91,0,0,1,73,16l0,2.22a.94.94,0,0,1-.93.94l-5,.06L67.17,29c0,1.68.67,2,1.6,2a8,8,0,0,0,3-.93.74.74,0,0,1,1.14.44l.91,2.15a.82.82,0,0,1-.43,1.19,15.16,15.16,0,0,1-5.75,1.55c-3.89,0-5-2.31-5.09-5.81Z" style="fill:#272525"/><path d="M75.51,16.33a.88.88,0,0,1,.82-1.3l3.26,0a1.06,1.06,0,0,1,.84.53l6.26,13h0l5.77-13.18a1,1,0,0,1,1-.55l2.81,0a.84.84,0,0,1,.85,1.27L82.49,48.88a1,1,0,0,1-.84.6l-3,0a.89.89,0,0,1-.86-1.32L84.29,34Z" style="fill:#272525"/><path d="M90.1,42a1.21,1.21,0,1,1,0,2.42,1.21,1.21,0,0,1,0-2.42Z" style="fill:#272525"/><path d="M94.71,39a2.38,2.38,0,0,1,1.92.92.24.24,0,0,1-.07.35L95.8,41a.23.23,0,0,1-.28,0,1,1,0,0,0-1.76.71,1,1,0,0,0,1,1,1.08,1.08,0,0,0,.87-.4.21.21,0,0,1,.28,0l.77.66c.11.11.17.23.09.36a2.29,2.29,0,0,1-2.06,1.07,2.68,2.68,0,1,1,0-5.35Z" style="fill:#272525"/><path d="M100,39a2.68,2.68,0,1,1-2.66,2.66A2.68,2.68,0,0,1,100,39Zm0,3.71a1,1,0,0,0,1-1,1,1,0,1,0-2,0A1,1,0,0,0,100,42.73Z" style="fill:#272525"/><path d="M103.6,39.39a.23.23,0,0,1,.24-.24h.58a.26.26,0,0,1,.22.14l.22.52a2.41,2.41,0,0,1,1.72-.79,2.1,2.1,0,0,1,1.67.78A2.46,2.46,0,0,1,110,39a2.38,2.38,0,0,1,2.36,2.68V44a.25.25,0,0,1-.25.24h-1.35a.24.24,0,0,1-.24-.24V41.62a.85.85,0,0,0-.85-1,.87.87,0,0,0-.86.87V44a.24.24,0,0,1-.24.24h-1.22a.25.25,0,0,1-.25-.24V41.62c0-.51-.22-1-.8-1a.86.86,0,0,0-.89.9V44a.25.25,0,0,1-.24.24h-1.34a.24.24,0,0,1-.24-.24Z" style="fill:#272525"/><rect y="41.92" width="75.88" height="2.81" style="fill:#272525"/></g></g></svg>