<svg xmlns="http://www.w3.org/2000/svg" viewBox="0 0 216.688 39.482">
  <defs>
    <style>
      .cls-1 {
        fill: #000;
      }
    </style>
  </defs>
  <g id="Group_1825" data-name="Group 1825" transform="translate(-54 -14)">
    <g id="Group_1698" data-name="Group 1698" transform="translate(6 -1.934)">
      <path id="Path_3811" data-name="Path 3811" class="cls-1" d="M262.555,49.433h7.21a18.143,18.143,0,0,0,12.874-4.864,13.651,13.651,0,0,0,3.948-9.784,9.736,9.736,0,0,0-2.8-7.21c-2.289-2.289-5.894-3.376-9.842-3.376h-4.864a1.285,1.285,0,0,0-1.087.915l-6.294,23.4A.858.858,0,0,0,262.555,49.433Zm7.152-23.517h4.177c3.548,0,6.523.973,8.411,2.861a8.28,8.28,0,0,1,2.346,6.18,11.7,11.7,0,0,1-3.376,8.468,15.4,15.4,0,0,1-11.215,4.349h-6.18Z" transform="translate(-63.955 5.581)"/>
      <path id="Path_3812" data-name="Path 3812" class="cls-1" d="M311.286,49.433h16.422a.858.858,0,0,0,0-1.717H312.545l2.689-10.128h13.847a.858.858,0,0,0,0-1.717H315.749l2.689-9.956h15.449a.858.858,0,0,0,0-1.717H317.867a1.285,1.285,0,0,0-1.087.916l-6.294,23.4A.759.759,0,0,0,311.286,49.433Z" transform="translate(-84.821 5.581)"/>
      <path id="Path_3813" data-name="Path 3813" class="cls-1" d="M350.4,33.916v.744a.915.915,0,1,0,1.831,0v-.744a.9.9,0,0,0-.915-.916A.871.871,0,0,0,350.4,33.916Z" transform="translate(-101.905 1.816)"/>
      <path id="Path_3814" data-name="Path 3814" class="cls-1" d="M235.623,41.851c5.092,0,9.269-4.692,9.269-9.727a6.736,6.736,0,0,0-6.923-6.923c-5.092,0-9.269,4.692-9.269,9.727A6.736,6.736,0,0,0,235.623,41.851Zm2.232-15.163a5.261,5.261,0,0,1,5.379,5.493c0,4.177-3.261,8.182-7.553,8.182A5.261,5.261,0,0,1,230.3,34.87C230.3,30.693,233.621,26.688,237.855,26.688Z" transform="translate(-49.841 5.153)"/>
      <path id="Path_3815" data-name="Path 3815" class="cls-1" d="M238.316,63.6a1.316,1.316,0,1,0,1.316,1.316A1.295,1.295,0,0,0,238.316,63.6Z" transform="translate(-53.392 -11.275)"/>
      <path id="Path_3816" data-name="Path 3816" class="cls-1" d="M114.811,58.8a34.217,34.217,0,0,1-7.953,5.55,3.374,3.374,0,0,1-.458.229h15.564c-.172-.057-.343-.057-.4-.114A14.359,14.359,0,0,1,114.811,58.8Z" transform="translate(2.481 -9.221)"/>
      <path id="Path_3817" data-name="Path 3817" class="cls-1" d="M67.442,6.294c.572-.8.687-1.43,1.144-2.06A4.225,4.225,0,0,0,69.616,1.6c0-.8-1.831-1.6-2.46-1.6a1.157,1.157,0,0,0-1.144.572C62.75,4.692,60.69,9.212,57.6,13.5h4.921C64.18,11.1,65.954,8.64,67.442,6.294Z" transform="translate(23.358 15.934)"/>
      <path id="Path_3818" data-name="Path 3818" class="cls-1" d="M349.229,57.877a.47.47,0,0,0-.229.343.389.389,0,0,0,.4.4,3.655,3.655,0,0,0,1.43-.858c.515-.515.744-1.316.744-2.861v-.687a.915.915,0,1,0-1.831,0v.572a.947.947,0,0,0,.744.973C350.6,56.733,350.2,57.305,349.229,57.877Z" transform="translate(-101.306 -6.868)"/>
      <path id="Path_3819" data-name="Path 3819" class="cls-1" d="M351.395,25.6h3.834c.229,0,2.174.172,2.174,3.719,0,3.09.229,6.065,2.632,7.438-2.346,1.373-2.632,4.349-2.632,7.438,0,3.548-2,3.719-2.174,3.719h-9.784a.744.744,0,0,0,0,1.488h9.842c.057,0,3.662-.114,3.662-5.264,0-4.635.629-6.695,4.463-6.695a.757.757,0,0,0,.744-.744.725.725,0,0,0-.229-.515.852.852,0,0,0-.515-.229c-3.834,0-4.463-2.06-4.463-6.695,0-5.15-3.662-5.264-3.662-5.264h-3.891a.757.757,0,0,0-.744.744A.789.789,0,0,0,351.395,25.6Z" transform="translate(-99.467 5.667)"/>
      <path id="Path_3820" data-name="Path 3820" class="cls-1" d="M3.2,37.848a2.408,2.408,0,0,1,.572,1.144,6.542,6.542,0,0,1,.172,1.6v4.463a5.007,5.007,0,0,0,.172,1.373,4.13,4.13,0,0,0,.515,1.144,3.921,3.921,0,0,0,.973.973,3.648,3.648,0,0,0,.8.458,4.768,4.768,0,0,0,.858.229,3.864,3.864,0,0,0,.8.114,1.584,1.584,0,0,1,.515.057H36.62c-.744-.057-1.144-.744-1.488-1.2a4.155,4.155,0,0,1-.973-2.174c0-1.945,2.117-3.776,2.689-5.951a118.77,118.77,0,0,0,3.433-13.1c.057-.515.114-.8.114-.915,0-.343-.4-.8-.458-1.316,0-.458.8-1.259,1.945-1.259a2.361,2.361,0,0,1,1.659.629,6.236,6.236,0,0,1,.744,3.147A8,8,0,0,1,44,29.208a8.3,8.3,0,0,0-.229.915c0,.172,0,.229.172.229.057,0,.229-.057.629-.458a24.924,24.924,0,0,1,6.981-4.635,2.433,2.433,0,0,1,.629-.114,4.407,4.407,0,0,1,3.662,1.6,1.444,1.444,0,0,1,.343.973,2.433,2.433,0,0,1-1.774,2.518c-.744,0-1.545-.572-2.232-.572a1.516,1.516,0,0,0-.8.229,23.6,23.6,0,0,0-12.645,16.25,4.268,4.268,0,0,1-1.259,2.689,1.392,1.392,0,0,1-.858.515H57.848c-.114-.057-.172-.057-.286-.114-1.087-.4-2.861-1.2-3.2-1.373a6.1,6.1,0,0,1-2.518-3.433,14.912,14.912,0,0,1-.629-3.834,7.033,7.033,0,0,1,.229-1.659c1.43-5.035,4.806-9.384,8.64-13.389a7.865,7.865,0,0,1,5.379-2.232,6.834,6.834,0,0,1,3.033.572c.572.172,1.6,1.087,1.6,3.09a8.1,8.1,0,0,1-1.144,3.548,11.319,11.319,0,0,1-1.6,2.346c-3.433,3.834-7.381,8.182-11.615,10.471-.172.229-.229.343-.229.458a2.883,2.883,0,0,0,1.2,2.06,3.272,3.272,0,0,0,1.545.4c.858,0,1.6-.172,3.891-1.373,3.433-1.831,5.55-4.52,8.583-6.409a1.7,1.7,0,0,1,1.03-.343c.286,0,1.03.515,1.03.973a3.587,3.587,0,0,1-.057.629.841.841,0,0,1-.229.687c-.114.114-.229.172-.343.286h0c1.144,1.545,1.774,3.433,3.261,4.749.515.458.744.515,1.03.515a.462.462,0,0,0,.515-.4,8.705,8.705,0,0,0-.229-1.545c-.687-3.261-1.6-10.643-1.6-11.673a13.417,13.417,0,0,1,1.831-6.008A6.69,6.69,0,0,1,81.251,23.2l-43.143.114a36.062,36.062,0,0,0-3.49,6.466l-.8,2.117c-3.033,8.068-3.834,11.558-3.834,13.332a10.521,10.521,0,0,0,.4,2.689c0,.172-.057.172-.172.343-.687.687-.572,1.03-1.831,1.03-.458,0-1.774-.629-1.831-.915a14.979,14.979,0,0,1-.286-3.147,23.866,23.866,0,0,1,1.316-7.1A25.068,25.068,0,0,1,29.124,34.7c0-.057,0-.114-.114-.114s-.229.114-.515.458C24.49,39.507,20.542,44.2,15.678,47.06a3.1,3.1,0,0,1-1.488.343,7.606,7.606,0,0,1-3.548-1.488,5,5,0,0,1-.858-2.746c0-1.373.572-2.918,1.774-5.15A29.6,29.6,0,0,1,21.915,27.263a7.937,7.937,0,0,1,3.6-.916,4.988,4.988,0,0,1,1.43.229,16.615,16.615,0,0,1,2.346.915c.229,0,.343,0,.4-.057a35.153,35.153,0,0,0,3.319-4.005l-24.49.057h0a1.765,1.765,0,0,0-.515.057,4.489,4.489,0,0,0-.8.114c-.286.057-.572.172-.858.229a2.245,2.245,0,0,0-.8.458,5.2,5.2,0,0,0-.973.973,4.13,4.13,0,0,0-.515,1.144,5.007,5.007,0,0,0-.172,1.373V32.3a6.542,6.542,0,0,1-.172,1.6,2.7,2.7,0,0,1-.572,1.144,4.489,4.489,0,0,1-1.144.8,10.754,10.754,0,0,1-2,.572v.172a9.587,9.587,0,0,1,2,.572A3.909,3.909,0,0,1,3.2,37.848Z" transform="translate(48 6.009)"/>
      <path id="Path_3821" data-name="Path 3821" class="cls-1" d="M97.514,41.545a.5.5,0,0,0,.343-.172,48.265,48.265,0,0,0,7.667-7.61,14.276,14.276,0,0,0,1.2-2,3.839,3.839,0,0,0,.915-2.289c0-.4,0-.572-.286-.572a1.969,1.969,0,0,0-1.03.458c-.572.343-.515.172-1.03.629-3.261,2.861-6.752,6.923-7.9,11.329C97.4,41.488,97.457,41.545,97.514,41.545Z" transform="translate(6.331 3.57)"/>
      <path id="Path_3822" data-name="Path 3822" class="cls-1" d="M36.5,33.7a2.911,2.911,0,0,0-1.259.229,25.316,25.316,0,0,0-11.673,12.7,2.58,2.58,0,0,0-.172.629c0,.458.114,1.087.343,1.087a.923.923,0,0,0,.515-.172c.286-.229.629-.229,1.03-.572,4.291-3.2,8.011-7.553,11.272-11.73.629-.744,1.03-.915,1.03-1.717C37.647,33.872,37.3,33.7,36.5,33.7Z" transform="translate(37.989 1.517)"/>
      <path id="Path_3823" data-name="Path 3823" class="cls-1" d="M141.972,23.4h0Z" transform="translate(-12.664 5.923)"/>
      <path id="Path_3824" data-name="Path 3824" class="cls-1" d="M144.625,25a5.3,5.3,0,0,1,.973,3.2,6.644,6.644,0,0,1-1.43,4.12c-.4.515-.458.515-.687.515a3.469,3.469,0,0,1-1.774-.629,1.883,1.883,0,0,1-.744-1.6.761.761,0,0,1,.172-.4,4.335,4.335,0,0,0,.858-2.289,3.449,3.449,0,0,0-.343-1.316,1.413,1.413,0,0,0-1.087-.687c-.343,0-2.632,2.8-3.033,5.092a6.749,6.749,0,0,0-.114,1.259c0,.286.229,2.518.343,3.147.458,3.719,1.6,9.212,1.6,11.272a1.509,1.509,0,0,1-.4.915,6.017,6.017,0,0,1-2.46,1.717h13.332c-.172-.057-.343-.057-.458-.114a15.558,15.558,0,0,1-7.324-6.58,1.525,1.525,0,0,1-.286-.744,1.963,1.963,0,0,1,1.831-1.831c1.03,0,1.43.114,1.888.687,1.144,1.545,1.774,3.376,3.261,4.749.515.458.744.515,1.03.515a.462.462,0,0,0,.515-.4,8.047,8.047,0,0,0-.229-1.545c-.687-3.261-1.6-10.643-1.6-11.615a13.417,13.417,0,0,1,1.831-6.008,6.187,6.187,0,0,1,4.463-3.147c2.747,0,3.891.687,4.921,1.774a5.3,5.3,0,0,1,.973,3.2,6.335,6.335,0,0,1-1.43,4.063c-.4.515-.458.515-.687.515a3.469,3.469,0,0,1-1.774-.629,1.883,1.883,0,0,1-.744-1.6.761.761,0,0,1,.172-.4,4.335,4.335,0,0,0,.858-2.289A3.449,3.449,0,0,0,156.7,26.6a1.514,1.514,0,0,0-1.087-.687c-.343,0-2.632,2.8-3.033,5.092a6.75,6.75,0,0,0-.114,1.259c0,.286.229,2.518.343,3.147.458,3.719,1.6,9.212,1.6,11.215a1.033,1.033,0,0,1-.4.858,5.269,5.269,0,0,1-2.518,1.659h17.967c.229,0,.458.057.687.057h1.488a12.68,12.68,0,0,0,8.64-3.776,1.135,1.135,0,0,0,.343-.744.88.88,0,0,0-.858-.858H179.7a1,1,0,0,0-.687.343,11.2,11.2,0,0,1-7.381,3.319h-1.144c-4.692-.172-8.125-3.433-8.125-8.583,0-6.866,5.264-13.561,12.13-14.133h0a.974.974,0,0,0,.4-.057h.515a7.894,7.894,0,0,1,7.381,4.063.9.9,0,0,0,.744.4h.172a.912.912,0,0,0,.8-.8,1.862,1.862,0,0,0-.229-.8,9.991,9.991,0,0,0-8.754-4.52h-.8V23l-34.331.057A6.685,6.685,0,0,1,144.625,25Z" transform="translate(-10.396 6.094)"/>
    </g>
  </g>
</svg>
