<svg width="150" height="48" viewBox="0 0 150 48" fill="none" xmlns="http://www.w3.org/2000/svg">
<path d="M29.6052 7.03394L7.125 12.268V39.969L15.2655 31.9111L29.6052 28.5726V7.03394Z" fill="white"/>
<path d="M29.6052 7.03394L7.125 12.268V39.969L15.2655 31.9111L29.6052 28.5726V7.03394ZM17.6634 28.7524L14.8421 29.3966L14.8318 22.0892L12.2486 22.6787L12.2589 29.9861L9.43708 30.63L9.44197 14.6524L12.2635 14.0083L12.2604 20.2772L14.8436 19.6877L14.8462 13.4188L17.6684 12.7744L17.6634 28.7524ZM24.4619 27.1847L24.4516 19.8772L21.8685 20.4667L21.8787 27.7741L19.057 28.4182L19.0614 12.4404L21.8836 11.7964L21.8805 18.0653L24.4642 17.476L24.4671 11.2071L27.2891 10.5626L27.2844 26.5404L24.4619 27.1847Z" fill="#4A47C6"/>
<path d="M51.8359 23.7479C51.8359 20.4554 54.451 17.8445 57.8456 17.8445C61.2402 17.8445 63.8547 20.4547 63.8547 23.7479C63.8547 27.0412 61.2402 29.6504 57.8466 29.6504C54.4525 29.6504 51.8359 27.0393 51.8359 23.7479ZM61.2859 23.7479C61.2859 21.7268 59.8637 20.1602 57.8456 20.1602C55.8046 20.1602 54.3824 21.7268 54.3824 23.7479C54.3824 25.769 55.8046 27.3351 57.8456 27.3351C59.8637 27.3345 61.2859 25.7679 61.2859 23.7479Z" fill="black"/>
<path d="M79.4904 23.0889C79.4904 21.2952 78.7567 20.1374 77.1967 20.1374C76.0043 20.1374 75.0855 20.8637 74.6507 21.9309C74.6955 22.1705 74.7184 22.4136 74.7199 22.6572V29.4235H72.1963V23.0897C72.1963 21.296 71.4397 20.1382 69.8797 20.1382C68.756 20.1382 67.8387 20.7738 67.4029 21.7501V29.4243H64.8799V18.1661L67.4029 17.5837V19.1388C68.1138 18.2532 69.2833 17.8446 70.4533 17.8446C71.8297 17.8446 72.9997 18.4578 73.7563 19.5247C74.5592 18.4348 75.9819 17.8446 77.5404 17.8446C80.4768 17.8446 82.0134 19.8652 82.0134 22.6579V29.4241H79.4904V23.0889Z" fill="black"/>
<path d="M124.234 18.4221L126.757 17.8445V19.5928C127.194 18.7072 128.363 17.9579 129.648 17.9579C130.042 17.9569 130.434 18.0027 130.818 18.0942L130.45 20.5241C130.221 20.4335 129.9 20.3877 129.464 20.3877C128.455 20.3877 127.285 20.9558 126.757 22.136V29.4245H124.234V18.4221Z" fill="black"/>
<path d="M130.816 23.7479C130.816 20.4554 133.431 17.8445 136.826 17.8445C140.221 17.8445 142.835 20.4547 142.835 23.7479C142.835 27.0411 140.221 29.651 136.826 29.651C133.431 29.651 130.816 27.0393 130.816 23.7479ZM140.266 23.7479C140.266 21.7268 138.844 20.1602 136.826 20.1602C134.785 20.1602 133.363 21.7268 133.363 23.7479C133.363 25.769 134.785 27.3353 136.826 27.3353C138.844 27.3346 140.266 25.7679 140.266 23.7479Z" fill="black"/>
<path d="M36.7432 13.3015H39.4269V19.9775H47.4781V13.3015H50.1618V29.4225H47.4781V22.4975H39.4269V29.4225H36.7432V13.3015Z" fill="black"/>
<path d="M96.4502 13.3015H99.1334V19.9775H107.185V13.3015H109.868V29.4225H107.184V22.4975H99.1329V29.4225H96.4492L96.4502 13.3015Z" fill="black"/>
<path d="M83.5335 25.0747C82.7738 21.8226 84.6252 18.7653 88.0218 17.9876C90.9714 17.3123 93.857 18.679 94.6894 22.2404C94.7463 22.4834 94.7926 22.6831 94.8526 23.0419L86.0713 25.0526C86.6118 26.8633 88.338 27.7031 90.2148 27.2733C91.8023 26.91 92.6418 25.9721 93.018 24.8597L95.205 25.757C94.5714 27.58 93.0562 28.9525 90.7095 29.4897C87.3129 30.2687 84.3241 28.4602 83.5335 25.0747ZM91.9812 21.835C91.3411 20.3035 89.8431 19.7376 88.4133 20.0649C86.9606 20.3975 85.7438 21.5381 85.7692 23.2572L91.9812 21.835Z" fill="black"/>
<path d="M111.505 25.0747C110.745 21.8226 112.597 18.7653 115.993 17.9876C118.943 17.3123 121.829 18.679 122.661 22.2404C122.717 22.4834 122.764 22.6831 122.824 23.0419L114.043 25.0532C114.583 26.8638 116.31 27.7036 118.187 27.2738C119.774 26.9105 120.614 25.9726 120.99 24.8602L123.177 25.7575C122.544 27.5805 121.028 28.953 118.682 29.4902C115.285 30.2687 112.296 28.4602 111.505 25.0747ZM119.953 21.835C119.313 20.3035 117.815 19.7376 116.384 20.0649C114.932 20.3975 113.715 21.5381 113.741 23.2572L119.953 21.835Z" fill="black"/>
</svg>
