<svg fill="none" width="111" height="31" xmlns="http://www.w3.org/2000/svg">
  <g fill="#fb4f5e">
    <path
      d="m57.873 19.41a4.053 4.053 0 0 1 -4.045-4.062 4.053 4.053 0 0 1 4.045-4.06c.849 0 1.636.262 2.286.71l2.346-3.251c-2.92-2.123-6.677-2.117-9.59.014-3.64 2.665-4.441 7.788-1.788 11.443a8.137 8.137 0 0 0 11.398 1.794l-2.386-3.285a4.015 4.015 0 0 1 -2.266.696zm-49.51-12.222c-4.49-.01-8.136 3.637-8.145 8.144l-.028 13.348 4.659.01.011-5.968a8.07 8.07 0 0 0 3.472.789c4.489.008 8.135-3.638 8.144-8.145s-3.624-8.168-8.113-8.176zm-.026 13.037c-2.682-.005-4.853-2.193-4.848-4.886 2.03 0 7.799.019 9.715.019-.005 2.693-2.184 4.872-4.867 4.867zm98.657-13.023v-5.151h-4.639v5.152h-3.468v4.101h3.468v12.226h4.639v-12.226h3.817v-4.101h-3.817zm-15.964.134a8.011 8.011 0 0 0 -6.288 1.442 8.09 8.09 0 0 0 -3.268 6.483v.002l-.01 8.252h4.667v-8.454c.148-1.899 1.47-3.421 3.136-3.624a3.996 3.996 0 0 1 1.329.123c1.489.47 2.585 2.02 2.585 3.855v8.117h4.464v-8.117c0-4.17-2.897-7.614-6.615-8.079zm-60.713.888a8.113 8.113 0 0 0 -12.02 7.789 8.066 8.066 0 0 0 1.997 4.76 8.114 8.114 0 0 0 11.446.736l-2.659-3.022a4.023 4.023 0 0 1 -6.285-1.623h11.54c.688-3.514-.887-6.9-4.02-8.64zm-7.579 5.721a4.034 4.034 0 0 1 1.15-1.696 4.022 4.022 0 0 1 6.355 1.696zm52.757-5.721a8.113 8.113 0 0 0 -12.02 7.789 8.065 8.065 0 0 0 1.997 4.76 8.114 8.114 0 0 0 11.446.736l-2.658-3.022a4.023 4.023 0 0 1 -6.285-1.623h11.54c.687-3.514-.888-6.9-4.02-8.64zm-7.579 5.721a4.034 4.034 0 0 1 1.15-1.696 4.022 4.022 0 0 1 6.355 1.696zm-18.669-5.211-.003-.002z">
    </path>
    <path
      d="m49.244 8.732a8.533 8.533 0 0 0 -1.405-.836 6.935 6.935 0 0 0 -1.987-.559 8.011 8.011 0 0 0 -5.533.946l-.063.037c-.042.025-.083.052-.125.078a8.154 8.154 0 0 0 -3.574 4.858l-.012.045a8.426 8.426 0 0 0 -.132.619 8.158 8.158 0 0 0 -.117 1.343v.002l-.001.444-.01 7.807h4.667v-8.454c.148-1.899 1.47-3.42 3.137-3.624a3.996 3.996 0 0 1 1.329.123c.46.146.884.396 1.249.725l2.58-3.551z">
    </path>
  </g>
</svg>