<svg xmlns="http://www.w3.org/2000/svg" viewBox="0 0 797 183" fill="#fff">
  <path
    d="M329.6 109.9H188.8c2.6 21.4 12.4 37.5 31 47 32.8 16.5 62 8.1 88.5-15.4l12.5 11.3a91.6 91.6 0 0 1-43 26.7 86.3 86.3 0 0 1-90.6-27.7c-35-45-14.3-120.7 49.3-131.6 59.7-10.2 98.6 41.4 93.1 89.7Zm-18-18.3c-5-35-34.7-58.8-67.5-55.2-29.7 3.3-56.6 30.4-54.4 55.2ZM671.5 19c45.9 0 82 36 82.1 82s-35.9 81.8-82 81.8-82.4-35.9-82.4-81.7A82 82 0 0 1 671.5 19Zm65 81.7A64.4 64.4 0 0 0 671.3 36a64.8 64.8 0 0 0-65 65.1c.2 36.6 29 64.7 66.2 64.5 36-.2 64.2-28.8 64-65ZM567.2 53l-13 9.5A65.5 65.5 0 0 0 452.3 58a65.8 65.8 0 0 0 3.9 90c22.5 21.5 68 27.9 98.2-8.5l12.7 9.6c-15.8 26.2-55.5 40-87.8 30.8a80.2 80.2 0 0 1-60-80 82.3 82.3 0 0 1 63.2-79.3c31.6-7.7 70.8 7.2 84.7 32.4ZM63.2 21C26.2 30 .7 62 0 100.2v80.2h17.1V101a64.5 64.5 0 0 1 16-42.5A65.6 65.6 0 0 1 135 62.7l13-9.4c-14-25.1-53.2-40-84.8-32.3Z">
  </path>
  <circle fill="#fff" class="transition-transform duration-200 ease-out group-hover:translate-y-3" cx="373.3"
    cy="59.9" r="12.5"></circle>
  <circle fill="#fff" class="transition-transform duration-200 ease-out group-hover:-translate-y-3" cx="373.3"
    cy="142" r="12.5"></circle>
  <path fill="#fff"
    d="M787.2 24.4v-1.3a7.7 7.7 0 0 0-.6-3.1 4.4 4.4 0 0 0-1.8-2 4.6 4.6 0 0 0 2.5-4.1 5.6 5.6 0 0 0-2.3-4.8 9.8 9.8 0 0 0-6-1.7h-7v20.7h4v-8h3.7a3.5 3.5 0 0 1 2.6.7 3.3 3.3 0 0 1 .7 2.4v3a5.4 5.4 0 0 0 .4 1.8h4.1v-.5a9.8 9.8 0 0 1-.3-3Zm-11-13.4h2.9a6 6 0 0 1 3.2.6 2.5 2.5 0 0 1 1 2.2 2 2 0 0 1-1.3 2 6 6 0 0 1-2.8.6h-3Z">
  </path>
  <path fill="#fff"
    d="M795.6 10.9A17.8 17.8 0 0 0 792 5a17.6 17.6 0 0 0-5.7-3.8 17.8 17.8 0 0 0-13.6 0 17.7 17.7 0 0 0-5.6 3.8 18.4 18.4 0 0 0 0 25.7 17.9 17.9 0 0 0 5.6 3.8 17.6 17.6 0 0 0 13.6 0 17.7 17.7 0 0 0 9.4-9.5 18.4 18.4 0 0 0 1.4-7.2 18.1 18.1 0 0 0-1.4-7Zm-16.2 21.8a13.8 13.8 0 0 1-5.5-1.1 14.1 14.1 0 0 1-4.5-3.1 14.4 14.4 0 0 1-3-4.7 15.1 15.1 0 0 1-1.2-5.8 15 15 0 0 1 1.1-5.8 14.5 14.5 0 0 1 3.1-4.6 14.3 14.3 0 0 1 4.5-3.1 14.2 14.2 0 0 1 11 0 14.2 14.2 0 0 1 4.6 3 14.5 14.5 0 0 1 3 4.7 15 15 0 0 1 1.1 5.8 15.1 15.1 0 0 1-1 5.8 14.4 14.4 0 0 1-3.2 4.7 14.1 14.1 0 0 1-4.5 3 14 14 0 0 1-5.5 1.2Z">
  </path>
</svg>