<svg width="179" height="37" viewBox="0 0 179 37" fill="none" xmlns="http://www.w3.org/2000/svg">
<path d="M16.712 36.432C11.656 36.432 7.752 34.848 5 31.68C2.248 28.48 0.872 24.336 0.872 19.248C0.872 14.128 2.248 9.968 5 6.768C7.752 3.568 11.656 1.968 16.712 1.968C20.84 1.968 24.216 3.168 26.84 5.568C29.464 7.968 30.904 10.992 31.16 14.64H24.44C24.248 12.688 23.496 11.088 22.184 9.84C20.904 8.592 19.08 7.968 16.712 7.968C13.704 7.968 11.432 8.976 9.896 10.992C8.36 13.008 7.592 15.76 7.592 19.248C7.592 22.736 8.36 25.488 9.896 27.504C11.432 29.488 13.704 30.48 16.712 30.48C18.984 30.48 20.76 29.904 22.04 28.752C23.32 27.568 24.136 26.016 24.488 24.096H31.16C30.776 27.68 29.288 30.64 26.696 32.976C24.136 35.28 20.808 36.432 16.712 36.432ZM45.7513 36.432C41.8473 36.432 38.8393 35.248 36.7273 32.88C34.6473 30.512 33.6073 27.408 33.6073 23.568C33.6073 19.728 34.6633 16.608 36.7753 14.208C38.8873 11.808 41.8793 10.608 45.7513 10.608C49.5913 10.608 52.5673 11.808 54.6793 14.208C56.7913 16.608 57.8473 19.728 57.8473 23.568C57.8473 27.376 56.7913 30.48 54.6793 32.88C52.5993 35.248 49.6233 36.432 45.7513 36.432ZM40.1833 23.568C40.1833 28.368 42.0393 30.768 45.7513 30.768C49.4633 30.768 51.3193 28.368 51.3193 23.568C51.3193 18.704 49.4633 16.272 45.7513 16.272C42.0393 16.272 40.1833 18.704 40.1833 23.568ZM61.3674 36V11.04H67.1274L67.6074 13.872H67.7994C69.4314 11.696 71.7994 10.608 74.9034 10.608C77.6874 10.608 79.8954 11.424 81.5274 13.056C83.1594 14.656 83.9754 16.848 83.9754 19.632V36H77.5434V21.456C77.5434 18.128 76.0074 16.464 72.9354 16.464C71.3994 16.464 70.1514 16.976 69.1914 18C68.2634 19.024 67.7994 20.416 67.7994 22.176V36H61.3674ZM90.9826 36V16.464H86.6146V11.04H90.9826V8.928C90.9826 6.176 91.8786 4 93.6706 2.4C95.4626 0.799997 97.7506 -2.86102e-06 100.535 -2.86102e-06C101.591 -2.86102e-06 102.615 0.111998 103.607 0.335999V5.76C102.743 5.6 101.943 5.52 101.207 5.52C98.6786 5.52 97.4146 6.656 97.4146 8.928V11.04H103.367V16.464H97.4146V36H90.9826ZM110.524 7.92C109.212 7.92 108.22 7.584 107.548 6.912C106.876 6.208 106.54 5.232 106.54 3.984C106.54 2.8 106.876 1.872 107.548 1.2C108.22 0.495998 109.212 0.143998 110.524 0.143998C111.772 0.143998 112.748 0.495998 113.452 1.2C114.156 1.872 114.508 2.8 114.508 3.984C114.508 5.232 114.156 6.208 113.452 6.912C112.748 7.584 111.772 7.92 110.524 7.92ZM107.26 36V11.04H113.692V36H107.26ZM127.039 36.432C123.871 36.432 121.359 35.248 119.503 32.88C117.679 30.512 116.767 27.392 116.767 23.52C116.767 19.712 117.679 16.608 119.503 14.208C121.327 11.808 123.839 10.608 127.039 10.608C130.015 10.608 132.303 11.648 133.903 13.728H134.095V0.48H140.527V36H134.767L134.095 33.312H133.903C132.303 35.392 130.015 36.432 127.039 36.432ZM124.639 28.752C125.535 30.096 126.927 30.768 128.815 30.768C130.703 30.768 132.095 30.096 132.991 28.752C133.887 27.408 134.335 25.664 134.335 23.52C134.335 21.376 133.887 19.632 132.991 18.288C132.127 16.944 130.735 16.272 128.815 16.272C126.895 16.272 125.487 16.944 124.591 18.288C123.727 19.6 123.295 21.344 123.295 23.52C123.295 25.664 123.743 27.408 124.639 28.752ZM155.701 36.432C151.797 36.432 148.789 35.248 146.677 32.88C144.597 30.512 143.557 27.408 143.557 23.568C143.557 19.728 144.613 16.608 146.725 14.208C148.837 11.808 151.829 10.608 155.701 10.608C159.541 10.608 162.517 11.808 164.629 14.208C166.741 16.608 167.797 19.728 167.797 23.568C167.797 27.376 166.741 30.48 164.629 32.88C162.549 35.248 159.573 36.432 155.701 36.432ZM150.133 23.568C150.133 28.368 151.989 30.768 155.701 30.768C159.413 30.768 161.269 28.368 161.269 23.568C161.269 18.704 159.413 16.272 155.701 16.272C151.989 16.272 150.133 18.704 150.133 23.568ZM177.173 35.424C176.501 36.096 175.541 36.432 174.293 36.432C173.045 36.432 172.085 36.096 171.413 35.424C170.741 34.72 170.405 33.744 170.405 32.496C170.405 31.312 170.741 30.384 171.413 29.712C172.085 29.008 173.045 28.656 174.293 28.656C175.541 28.656 176.501 29.008 177.173 29.712C177.845 30.384 178.181 31.312 178.181 32.496C178.181 33.744 177.845 34.72 177.173 35.424Z" fill="#F1F1FF"/>
</svg>
