<svg width="406" height="59" viewBox="0 0 406 59" fill="none" xmlns="http://www.w3.org/2000/svg">
<path d="M213.56 47.216C211.416 47.216 209.752 46.704 208.568 45.68C207.4 44.64 206.776 43.232 206.696 41.456H210.032C210.096 42.384 210.432 43.088 211.04 43.568C211.664 44.048 212.504 44.288 213.56 44.288C215.832 44.288 216.968 43.6 216.968 42.224C216.968 41.664 216.784 41.224 216.416 40.904C216.048 40.584 215.464 40.336 214.664 40.16L212.216 39.632C210.616 39.296 209.384 38.752 208.52 38C207.672 37.248 207.248 36.16 207.248 34.736C207.248 33.312 207.816 32.168 208.952 31.304C210.104 30.424 211.648 29.984 213.584 29.984C215.472 29.984 217.016 30.48 218.216 31.472C219.432 32.464 220.048 33.744 220.064 35.312H216.728C216.68 34.608 216.392 34.04 215.864 33.608C215.336 33.16 214.56 32.936 213.536 32.936C212.576 32.936 211.848 33.104 211.352 33.44C210.872 33.76 210.632 34.192 210.632 34.736C210.632 35.184 210.792 35.56 211.112 35.864C211.448 36.168 212.008 36.408 212.792 36.584L215.072 37.064C216.752 37.416 218.048 37.992 218.96 38.792C219.888 39.576 220.352 40.696 220.352 42.152C220.352 43.72 219.784 44.96 218.648 45.872C217.528 46.768 215.832 47.216 213.56 47.216ZM227.548 47.216C225.628 47.216 224.132 46.632 223.06 45.464C221.988 44.28 221.452 42.712 221.452 40.76C221.452 38.808 221.98 37.248 223.036 36.08C224.092 34.896 225.572 34.304 227.476 34.304C229.204 34.304 230.54 34.768 231.484 35.696C232.444 36.608 232.972 37.8 233.068 39.272H229.828C229.764 38.632 229.524 38.12 229.108 37.736C228.692 37.336 228.148 37.136 227.476 37.136C225.652 37.136 224.74 38.344 224.74 40.76C224.74 43.176 225.652 44.384 227.476 44.384C228.164 44.384 228.708 44.2 229.108 43.832C229.524 43.448 229.772 42.936 229.852 42.296H233.092C232.996 43.768 232.468 44.96 231.508 45.872C230.564 46.768 229.244 47.216 227.548 47.216ZM238.512 47.216C237.152 47.216 236.08 46.856 235.296 46.136C234.528 45.4 234.144 44.464 234.144 43.328C234.144 42.144 234.56 41.208 235.392 40.52C236.24 39.816 237.504 39.464 239.184 39.464C240.272 39.464 241.2 39.592 241.968 39.848V38.768C241.968 38.224 241.792 37.784 241.44 37.448C241.088 37.112 240.544 36.944 239.808 36.944C239.152 36.944 238.64 37.096 238.272 37.4C237.904 37.704 237.72 38.088 237.72 38.552H234.696C234.696 37.32 235.144 36.304 236.04 35.504C236.952 34.704 238.232 34.304 239.88 34.304C241.528 34.304 242.824 34.72 243.768 35.552C244.712 36.368 245.184 37.432 245.184 38.744V47H242.328L242.088 45.704H241.992C241.224 46.712 240.064 47.216 238.512 47.216ZM239.28 44.672C240.096 44.672 240.744 44.448 241.224 44C241.72 43.552 241.968 43.008 241.968 42.368V42.104C241.264 41.832 240.44 41.696 239.496 41.696C238.808 41.696 238.272 41.832 237.888 42.104C237.52 42.376 237.336 42.736 237.336 43.184C237.336 43.632 237.504 43.992 237.84 44.264C238.176 44.536 238.656 44.672 239.28 44.672ZM247.391 47V29.24H250.607V47H247.391ZM254.473 32.96C253.817 32.96 253.321 32.792 252.985 32.456C252.649 32.104 252.481 31.616 252.481 30.992C252.481 30.4 252.649 29.936 252.985 29.6C253.321 29.248 253.817 29.072 254.473 29.072C255.097 29.072 255.585 29.248 255.937 29.6C256.289 29.936 256.465 30.4 256.465 30.992C256.465 31.616 256.289 32.104 255.937 32.456C255.585 32.792 255.097 32.96 254.473 32.96ZM252.841 47V34.52H256.057V47H252.841ZM258.291 47V34.52H261.171L261.411 35.936H261.507C262.323 34.848 263.507 34.304 265.059 34.304C266.451 34.304 267.555 34.712 268.371 35.528C269.187 36.328 269.595 37.424 269.595 38.816V47H266.379V39.728C266.379 38.064 265.611 37.232 264.075 37.232C263.307 37.232 262.683 37.488 262.203 38C261.739 38.512 261.507 39.208 261.507 40.088V47H258.291ZM277.058 52.712C275.41 52.712 274.074 52.296 273.05 51.464C272.042 50.648 271.522 49.568 271.49 48.224H274.634C274.682 48.72 274.922 49.128 275.354 49.448C275.786 49.784 276.354 49.952 277.058 49.952C277.954 49.952 278.634 49.728 279.098 49.28C279.562 48.848 279.794 48.28 279.794 47.576V45.656H279.698C278.898 46.696 277.754 47.216 276.266 47.216C274.666 47.216 273.41 46.616 272.498 45.416C271.586 44.216 271.13 42.672 271.13 40.784C271.13 38.848 271.586 37.288 272.498 36.104C273.426 34.904 274.682 34.304 276.266 34.304C277.754 34.304 278.898 34.824 279.698 35.864H279.794L280.13 34.52H283.01V47.624C283.01 49.144 282.458 50.368 281.354 51.296C280.25 52.24 278.818 52.712 277.058 52.712ZM275.042 43.4C275.49 44.056 276.194 44.384 277.154 44.384C278.114 44.384 278.81 44.056 279.242 43.4C279.69 42.728 279.914 41.856 279.914 40.784C279.914 39.712 279.69 38.84 279.242 38.168C278.794 37.48 278.098 37.136 277.154 37.136C276.21 37.136 275.514 37.48 275.066 38.168C274.618 38.84 274.394 39.712 274.394 40.784C274.394 41.856 274.61 42.728 275.042 43.4ZM284.261 50.384V50.144L285.005 44.36H288.581V44.6L286.733 50.384H284.261ZM301.575 47.216C299.815 47.216 298.479 46.824 297.567 46.04C296.655 45.24 296.183 44.16 296.151 42.8H299.367C299.367 43.296 299.559 43.704 299.943 44.024C300.327 44.344 300.871 44.504 301.575 44.504C302.247 44.504 302.759 44.4 303.111 44.192C303.463 43.968 303.639 43.688 303.639 43.352C303.639 42.744 303.159 42.344 302.199 42.152L300.183 41.768C297.751 41.304 296.535 40.04 296.535 37.976C296.535 36.92 296.975 36.048 297.855 35.36C298.751 34.656 299.967 34.304 301.503 34.304C303.039 34.304 304.271 34.696 305.199 35.48C306.127 36.248 306.591 37.24 306.591 38.456H303.423C303.423 37.992 303.247 37.616 302.895 37.328C302.559 37.024 302.079 36.872 301.455 36.872C300.911 36.872 300.479 36.976 300.159 37.184C299.839 37.392 299.679 37.664 299.679 38C299.679 38.576 300.103 38.952 300.951 39.128L303.231 39.536C304.367 39.76 305.255 40.16 305.895 40.736C306.551 41.312 306.879 42.176 306.879 43.328C306.879 44.544 306.383 45.496 305.391 46.184C304.399 46.872 303.127 47.216 301.575 47.216ZM310.257 32.96C309.601 32.96 309.105 32.792 308.769 32.456C308.433 32.104 308.265 31.616 308.265 30.992C308.265 30.4 308.433 29.936 308.769 29.6C309.105 29.248 309.601 29.072 310.257 29.072C310.881 29.072 311.369 29.248 311.721 29.6C312.073 29.936 312.249 30.4 312.249 30.992C312.249 31.616 312.073 32.104 311.721 32.456C311.369 32.792 310.881 32.96 310.257 32.96ZM308.625 47V34.52H311.841V47H308.625ZM328.427 34.304C329.803 34.304 330.899 34.712 331.715 35.528C332.531 36.344 332.939 37.44 332.939 38.816V47H329.723V39.728C329.723 38.064 329.003 37.232 327.563 37.232C326.811 37.232 326.227 37.488 325.811 38C325.395 38.512 325.187 39.208 325.187 40.088V47H321.995V39.728C321.995 38.064 321.267 37.232 319.811 37.232C319.059 37.232 318.451 37.488 317.987 38C317.523 38.512 317.291 39.208 317.291 40.088V47H314.075V34.52H316.955L317.195 35.936H317.291C318.107 34.848 319.275 34.304 320.795 34.304C322.539 34.304 323.787 34.92 324.539 36.152H324.611C325.443 34.92 326.715 34.304 328.427 34.304ZM335.181 52.496V34.52H338.061L338.397 35.864H338.493C339.293 34.824 340.445 34.304 341.949 34.304C343.501 34.304 344.741 34.904 345.669 36.104C346.597 37.288 347.061 38.848 347.061 40.784C347.061 42.672 346.605 44.216 345.693 45.416C344.781 46.616 343.533 47.216 341.949 47.216C340.445 47.216 339.293 46.696 338.493 45.656H338.397V52.496H335.181ZM338.925 43.4C339.373 44.056 340.077 44.384 341.037 44.384C341.997 44.384 342.693 44.056 343.125 43.4C343.573 42.728 343.797 41.856 343.797 40.784C343.797 39.696 343.573 38.816 343.125 38.144C342.693 37.472 341.997 37.136 341.037 37.136C340.093 37.136 339.397 37.48 338.949 38.168C338.501 38.84 338.277 39.712 338.277 40.784C338.277 41.856 338.493 42.728 338.925 43.4ZM348.81 47V29.24H352.026V47H348.81ZM355.892 32.96C355.236 32.96 354.74 32.792 354.404 32.456C354.068 32.104 353.9 31.616 353.9 30.992C353.9 30.4 354.068 29.936 354.404 29.6C354.74 29.248 355.236 29.072 355.892 29.072C356.516 29.072 357.004 29.248 357.356 29.6C357.708 29.936 357.884 30.4 357.884 30.992C357.884 31.616 357.708 32.104 357.356 32.456C357.004 32.792 356.516 32.96 355.892 32.96ZM354.26 47V34.52H357.476V47H354.26ZM360.981 47V37.232H358.797V34.52H360.981V33.464C360.981 32.088 361.429 31 362.325 30.2C363.221 29.4 364.365 29 365.757 29C366.285 29 366.797 29.056 367.293 29.168V31.88C366.861 31.8 366.461 31.76 366.093 31.76C364.829 31.76 364.197 32.328 364.197 33.464V34.52H367.173V37.232H364.197V47H360.981ZM370.752 32.96C370.096 32.96 369.6 32.792 369.264 32.456C368.928 32.104 368.76 31.616 368.76 30.992C368.76 30.4 368.928 29.936 369.264 29.6C369.6 29.248 370.096 29.072 370.752 29.072C371.376 29.072 371.864 29.248 372.216 29.6C372.568 29.936 372.744 30.4 372.744 30.992C372.744 31.616 372.568 32.104 372.216 32.456C371.864 32.792 371.376 32.96 370.752 32.96ZM369.12 47V34.52H372.336V47H369.12ZM379.898 47.216C378.026 47.216 376.554 46.616 375.482 45.416C374.41 44.2 373.874 42.656 373.874 40.784C373.874 38.912 374.386 37.368 375.41 36.152C376.45 34.92 377.93 34.304 379.85 34.304C381.658 34.304 383.074 34.88 384.098 36.032C385.138 37.184 385.658 38.64 385.658 40.4V41.648H377.162C377.178 42.544 377.41 43.256 377.858 43.784C378.322 44.296 379.002 44.552 379.898 44.552C381.226 44.552 382.042 44.072 382.346 43.112H385.49C385.314 44.296 384.722 45.28 383.714 46.064C382.722 46.832 381.45 47.216 379.898 47.216ZM377.186 39.512H382.37C382.338 38.76 382.106 38.152 381.674 37.688C381.258 37.224 380.65 36.992 379.85 36.992C378.986 36.992 378.33 37.224 377.882 37.688C377.45 38.152 377.218 38.76 377.186 39.512ZM391.842 47.216C390.258 47.216 389.002 46.624 388.074 45.44C387.162 44.256 386.706 42.696 386.706 40.76C386.706 38.856 387.162 37.304 388.074 36.104C388.986 34.904 390.242 34.304 391.842 34.304C393.33 34.304 394.474 34.824 395.274 35.864H395.37V29.24H398.586V47H395.706L395.37 45.656H395.274C394.474 46.696 393.33 47.216 391.842 47.216ZM390.642 43.376C391.09 44.048 391.786 44.384 392.73 44.384C393.674 44.384 394.37 44.048 394.818 43.376C395.266 42.704 395.49 41.832 395.49 40.76C395.49 39.688 395.266 38.816 394.818 38.144C394.386 37.472 393.69 37.136 392.73 37.136C391.77 37.136 391.066 37.472 390.618 38.144C390.186 38.8 389.97 39.672 389.97 40.76C389.97 41.832 390.194 42.704 390.642 43.376ZM403.725 46.712C403.389 47.048 402.909 47.216 402.285 47.216C401.661 47.216 401.181 47.048 400.845 46.712C400.509 46.36 400.341 45.872 400.341 45.248C400.341 44.656 400.509 44.192 400.845 43.856C401.181 43.504 401.661 43.328 402.285 43.328C402.909 43.328 403.389 43.504 403.725 43.856C404.061 44.192 404.229 44.656 404.229 45.248C404.229 45.872 404.061 46.36 403.725 46.712Z" fill="#F1F1FF"/>
<path d="M17.712 47.432C12.656 47.432 8.752 45.848 6 42.68C3.248 39.48 1.872 35.336 1.872 30.248C1.872 25.128 3.248 20.968 6 17.768C8.752 14.568 12.656 12.968 17.712 12.968C21.84 12.968 25.216 14.168 27.84 16.568C30.464 18.968 31.904 21.992 32.16 25.64H25.44C25.248 23.688 24.496 22.088 23.184 20.84C21.904 19.592 20.08 18.968 17.712 18.968C14.704 18.968 12.432 19.976 10.896 21.992C9.36 24.008 8.592 26.76 8.592 30.248C8.592 33.736 9.36 36.488 10.896 38.504C12.432 40.488 14.704 41.48 17.712 41.48C19.984 41.48 21.76 40.904 23.04 39.752C24.32 38.568 25.136 37.016 25.488 35.096H32.16C31.776 38.68 30.288 41.64 27.696 43.976C25.136 46.28 21.808 47.432 17.712 47.432ZM46.7513 47.432C42.8473 47.432 39.8393 46.248 37.7273 43.88C35.6473 41.512 34.6073 38.408 34.6073 34.568C34.6073 30.728 35.6633 27.608 37.7753 25.208C39.8873 22.808 42.8793 21.608 46.7513 21.608C50.5913 21.608 53.5673 22.808 55.6793 25.208C57.7913 27.608 58.8473 30.728 58.8473 34.568C58.8473 38.376 57.7913 41.48 55.6793 43.88C53.5993 46.248 50.6233 47.432 46.7513 47.432ZM41.1833 34.568C41.1833 39.368 43.0393 41.768 46.7513 41.768C50.4633 41.768 52.3193 39.368 52.3193 34.568C52.3193 29.704 50.4633 27.272 46.7513 27.272C43.0393 27.272 41.1833 29.704 41.1833 34.568ZM62.3674 47V22.04H68.1274L68.6074 24.872H68.7994C70.4314 22.696 72.7994 21.608 75.9034 21.608C78.6874 21.608 80.8954 22.424 82.5274 24.056C84.1594 25.656 84.9754 27.848 84.9754 30.632V47H78.5434V32.456C78.5434 29.128 77.0074 27.464 73.9354 27.464C72.3994 27.464 71.1514 27.976 70.1914 29C69.2634 30.024 68.7994 31.416 68.7994 33.176V47H62.3674ZM91.9826 47V27.464H87.6146V22.04H91.9826V19.928C91.9826 17.176 92.8786 15 94.6706 13.4C96.4626 11.8 98.7506 11 101.535 11C102.591 11 103.615 11.112 104.607 11.336V16.76C103.743 16.6 102.943 16.52 102.207 16.52C99.6786 16.52 98.4146 17.656 98.4146 19.928V22.04H104.367V27.464H98.4146V47H91.9826ZM111.524 18.92C110.212 18.92 109.22 18.584 108.548 17.912C107.876 17.208 107.54 16.232 107.54 14.984C107.54 13.8 107.876 12.872 108.548 12.2C109.22 11.496 110.212 11.144 111.524 11.144C112.772 11.144 113.748 11.496 114.452 12.2C115.156 12.872 115.508 13.8 115.508 14.984C115.508 16.232 115.156 17.208 114.452 17.912C113.748 18.584 112.772 18.92 111.524 18.92ZM108.26 47V22.04H114.692V47H108.26ZM128.039 47.432C124.871 47.432 122.359 46.248 120.503 43.88C118.679 41.512 117.767 38.392 117.767 34.52C117.767 30.712 118.679 27.608 120.503 25.208C122.327 22.808 124.839 21.608 128.039 21.608C131.015 21.608 133.303 22.648 134.903 24.728H135.095V11.48H141.527V47H135.767L135.095 44.312H134.903C133.303 46.392 131.015 47.432 128.039 47.432ZM125.639 39.752C126.535 41.096 127.927 41.768 129.815 41.768C131.703 41.768 133.095 41.096 133.991 39.752C134.887 38.408 135.335 36.664 135.335 34.52C135.335 32.376 134.887 30.632 133.991 29.288C133.127 27.944 131.735 27.272 129.815 27.272C127.895 27.272 126.487 27.944 125.591 29.288C124.727 30.6 124.295 32.344 124.295 34.52C124.295 36.664 124.743 38.408 125.639 39.752ZM156.701 47.432C152.797 47.432 149.789 46.248 147.677 43.88C145.597 41.512 144.557 38.408 144.557 34.568C144.557 30.728 145.613 27.608 147.725 25.208C149.837 22.808 152.829 21.608 156.701 21.608C160.541 21.608 163.517 22.808 165.629 25.208C167.741 27.608 168.797 30.728 168.797 34.568C168.797 38.376 167.741 41.48 165.629 43.88C163.549 46.248 160.573 47.432 156.701 47.432ZM151.133 34.568C151.133 39.368 152.989 41.768 156.701 41.768C160.413 41.768 162.269 39.368 162.269 34.568C162.269 29.704 160.413 27.272 156.701 27.272C152.989 27.272 151.133 29.704 151.133 34.568ZM178.173 46.424C177.501 47.096 176.541 47.432 175.293 47.432C174.045 47.432 173.085 47.096 172.413 46.424C171.741 45.72 171.405 44.744 171.405 43.496C171.405 42.312 171.741 41.384 172.413 40.712C173.085 40.008 174.045 39.656 175.293 39.656C176.541 39.656 177.501 40.008 178.173 40.712C178.845 41.384 179.181 42.312 179.181 43.496C179.181 44.744 178.845 45.72 178.173 46.424Z" fill="#F1F1FF"/>
</svg>
